<?xml version="1.0" standalone="no"?>
<!DOCTYPE svg PUBLIC "-//W3C//DTD SVG 20010904//EN"
 "http://www.w3.org/TR/2001/REC-SVG-20010904/DTD/svg10.dtd">
<svg version="1.0" xmlns="http://www.w3.org/2000/svg"
 width="700.000000pt" height="700.000000pt" viewBox="0 0 700.000000 700.000000"
 preserveAspectRatio="xMidYMid meet">
<metadata>
Created by potrace 1.11, written by Peter Selinger 2001-2013
</metadata>
<g transform="translate(0.000000,700.000000) scale(0.100000,-0.100000)"
fill="#000000" stroke="none">
<path d="M5430 6856 c-113 -31 -224 -76 -340 -139 -75 -40 -114 -71 -186 -143
-129 -129 -176 -218 -230 -425 -14 -57 -28 -106 -29 -107 -2 -2 -46 21 -97 51
-292 171 -631 295 -978 356 -192 34 -315 44 -540 44 -231 0 -381 -15 -595 -58
-1194 -241 -2138 -1194 -2371 -2395 -65 -334 -70 -732 -14 -1073 174 -1044
886 -1926 1875 -2320 185 -74 341 -118 609 -171 391 -78 516 -91 801 -83 396
12 743 89 1111 247 339 145 630 346 915 630 256 256 424 489 574 795 204 415
291 778 302 1251 6 265 -7 430 -53 657 -74 369 -233 754 -437 1057 l-57 85 26
3 c49 6 158 -19 219 -51 44 -23 102 -74 221 -193 157 -158 204 -194 271 -208
25 -6 36 -3 54 15 19 19 21 29 16 78 -8 74 -89 308 -134 391 -47 85 -133 174
-197 205 -63 31 -171 55 -249 55 -63 0 -228 -23 -325 -45 -136 -32 -124 -14
46 68 219 106 272 122 427 122 124 0 133 -2 202 -31 90 -39 202 -114 358 -238
184 -147 290 -190 329 -134 21 30 21 133 0 206 -75 262 -258 489 -476 592 -98
47 -192 63 -321 57 -194 -8 -353 -69 -581 -221 -145 -97 -147 -84 -8 39 169
150 326 223 525 246 111 13 228 5 375 -26 90 -19 152 -19 152 -1 0 21 -55 70
-111 101 -177 96 -446 83 -694 -34 -159 -75 -326 -189 -439 -299 l-68 -67 7
45 c26 173 79 285 184 391 87 87 154 133 369 249 154 84 222 139 222 179 0 81
-274 134 -499 97 -278 -47 -477 -172 -624 -394 -44 -67 -124 -223 -157 -305
-20 -50 -25 -56 -37 -44 -12 12 -11 30 12 133 64 286 183 430 495 597 126 68
208 96 318 107 138 15 147 17 130 37 -39 48 -162 56 -298 19z m-2895 -563
c-306 -76 -652 -228 -919 -403 -719 -472 -1196 -1213 -1327 -2060 -30 -194
-37 -564 -15 -763 51 -443 187 -854 401 -1206 67 -111 72 -139 9 -50 -260 367
-435 818 -500 1289 -22 154 -25 546 -6 695 157 1223 1026 2194 2217 2475 66
16 129 28 140 28 l20 0 -20 -5z m1067 -18 c267 -31 670 -185 942 -359 63 -40
62 -37 50 -202 l-7 -80 -108 80 c-232 174 -523 299 -784 336 -172 24 -424 3
-600 -50 -129 -39 -303 -132 -380 -203 -75 -69 -116 -130 -99 -147 12 -12 36
1 160 84 270 180 477 246 728 233 260 -13 498 -96 724 -254 50 -35 92 -66 92
-68 0 -5 -14 0 -130 48 -430 178 -741 208 -1057 102 -251 -84 -483 -256 -571
-424 -54 -102 -51 -163 10 -202 30 -18 45 -20 158 -16 115 4 150 10 435 80
349 86 446 105 590 114 167 10 305 -23 445 -106 72 -43 81 -61 31 -61 -112 0
-369 -114 -530 -235 -180 -136 -331 -322 -331 -407 0 -57 29 -50 87 19 126
149 209 223 428 375 129 90 280 158 349 158 27 0 20 -6 -54 -46 -106 -57 -218
-132 -292 -197 -151 -131 -305 -369 -371 -572 -51 -156 -56 -254 -17 -290 44
-39 126 11 365 225 215 192 388 323 585 444 85 52 155 94 157 92 1 -1 -16 -37
-38 -79 -93 -178 -132 -350 -133 -587 -1 -182 15 -267 60 -315 30 -32 54 -32
86 3 42 43 72 135 119 362 53 260 111 402 199 484 55 52 99 67 175 59 71 -7
90 6 156 105 66 97 168 228 207 266 31 29 62 30 62 2 0 -8 -17 -38 -37 -67
-93 -134 -161 -241 -193 -302 l-35 -65 35 -73 c48 -99 74 -129 113 -129 18 0
106 12 197 25 91 14 198 30 238 37 72 10 74 11 69 37 -13 61 -131 309 -251
524 -21 37 -36 67 -33 67 3 0 32 -39 64 -87 254 -373 413 -796 479 -1273 24
-173 24 -547 0 -720 -48 -348 -130 -618 -281 -925 -140 -283 -298 -507 -525
-739 -390 -400 -842 -663 -1365 -796 -195 -49 -275 -60 -119 -16 763 217 1415
727 1813 1419 68 118 164 317 157 325 -3 2 -87 0 -187 -5 l-182 -10 -28 -31
c-18 -20 -38 -63 -54 -119 -85 -289 -236 -604 -351 -731 -28 -31 -85 -85 -126
-119 l-75 -62 -12 92 c-36 267 -120 502 -255 711 -85 130 -157 221 -309 385
-182 196 -190 208 -184 286 3 33 17 96 32 140 39 113 43 204 15 345 -23 115
-23 135 -1 296 11 77 0 228 -19 263 -23 43 -43 43 -127 1 -43 -22 -107 -59
-143 -82 -76 -50 -88 -82 -47 -120 103 -96 121 -119 152 -183 40 -85 55 -159
55 -280 0 -153 -38 -258 -132 -360 -105 -115 -245 -177 -403 -179 -102 -1
-172 14 -263 55 -71 32 -96 49 -170 122 -146 142 -193 354 -111 507 66 124
225 234 405 279 45 12 140 26 210 32 158 13 158 13 145 38 -22 40 -78 51 -242
44 l-151 -6 -82 86 c-45 48 -89 87 -97 87 -14 0 -56 -39 -88 -82 -7 -9 -30
-62 -51 -117 -21 -55 -58 -129 -82 -164 -106 -152 -149 -260 -156 -393 -4 -86
-1 -111 18 -168 38 -116 141 -230 286 -319 103 -62 190 -87 447 -127 189 -30
295 -79 406 -190 109 -109 178 -239 235 -445 121 -435 34 -882 -202 -1033 -74
-48 -336 -107 -581 -132 -57 -5 -114 -10 -127 -10 l-24 0 0 148 c0 81 5 199
10 262 5 63 14 167 19 230 6 63 15 279 22 480 6 201 14 390 18 420 l8 55 13
-30 c11 -23 15 -152 21 -565 9 -641 19 -759 70 -824 26 -33 58 -31 76 4 15 30
17 183 3 325 -16 162 -45 868 -42 1017 3 158 -7 197 -61 219 -39 17 -108 14
-146 -5 -49 -26 -62 -71 -72 -250 -33 -601 -52 -849 -90 -1151 -31 -252 -41
-311 -57 -327 -17 -17 -341 16 -509 52 l-51 11 -30 107 c-58 202 -57 194 -82
852 -24 630 -34 793 -65 1055 -13 110 -26 245 -30 300 -13 186 -59 275 -143
275 -77 0 -144 -72 -160 -171 -5 -31 -5 -147 0 -265 9 -203 3 -1463 -7 -1694
-5 -102 -3 -119 14 -146 10 -17 28 -34 39 -36 31 -8 65 13 74 47 5 17 8 467 6
1022 -2 545 0 995 4 999 13 12 44 -24 56 -64 32 -108 35 -181 33 -867 -1 -379
3 -780 9 -890 5 -110 13 -257 16 -328 l7 -128 -89 32 c-232 81 -438 195 -620
342 -113 91 -148 148 -213 346 -82 248 -115 513 -92 746 38 387 146 762 267
931 83 117 149 144 394 163 210 16 355 63 497 159 136 93 215 184 302 350 53
100 58 107 98 120 63 20 87 60 92 151 6 133 -49 282 -162 431 -125 166 -204
218 -366 242 -113 16 -434 16 -501 -1 -66 -16 -130 -50 -130 -67 0 -27 46 -36
218 -43 139 -7 189 -13 235 -29 227 -81 390 -285 404 -507 18 -269 -188 -550
-479 -652 -86 -31 -216 -41 -300 -24 -119 25 -258 113 -273 174 -5 20 5 61 34
145 35 99 43 136 51 242 5 69 10 162 10 208 0 56 8 116 26 185 35 137 30 209
-17 251 -29 26 -37 28 -82 23 -110 -14 -319 -164 -422 -305 -71 -96 -136 -232
-192 -399 -39 -115 -46 -151 -47 -213 0 -64 4 -82 28 -122 30 -51 75 -94 115
-110 14 -5 67 -14 116 -19 87 -9 145 -25 145 -38 0 -3 -50 -56 -111 -116 -211
-208 -416 -524 -535 -823 l-41 -104 -36 124 c-45 149 -80 304 -104 458 -28
179 -25 656 5 839 105 642 381 1181 832 1631 484 483 1109 773 1805 839 128
12 438 5 597 -14z m-2302 -2911 c0 -13 -30 -58 -123 -184 -127 -171 -175 -251
-241 -398 -108 -240 -177 -513 -194 -770 l-7 -107 -57 105 c-31 58 -69 133
-83 167 l-27 62 31 98 c37 116 173 399 256 532 121 195 289 397 399 479 28 21
46 28 46 16z m2731 -945 c119 -105 308 -316 382 -426 73 -109 142 -242 180
-348 58 -164 105 -417 92 -501 -6 -44 -9 -47 -97 -105 -50 -32 -94 -59 -98
-59 -5 0 -6 48 -3 108 12 236 -81 637 -205 876 -60 117 -219 339 -321 449
-126 136 -82 139 70 6z"/>
<path d="M5775 4383 c-118 -11 -308 -44 -334 -58 -19 -9 -31 -23 -31 -35 0
-11 21 -75 46 -143 25 -67 61 -187 79 -266 50 -209 62 -218 210 -147 39 18
122 54 186 80 l116 48 -23 131 c-13 73 -39 190 -59 261 -19 70 -35 130 -35
132 0 4 -94 3 -155 -3z"/>
<path d="M2054 4021 c-77 -47 -115 -151 -80 -218 26 -51 62 -73 120 -73 64 0
112 25 149 77 54 76 43 172 -25 213 -43 26 -122 27 -164 1z"/>
<path d="M5910 3704 c-183 -62 -276 -107 -295 -144 -13 -25 -14 -59 -9 -212 8
-212 4 -204 126 -252 40 -17 122 -54 183 -83 100 -48 110 -51 117 -34 35 96
52 772 19 771 -3 0 -67 -21 -141 -46z"/>
<path d="M3065 3062 c-45 -28 -57 -48 -59 -91 -1 -69 73 -141 146 -141 59 0
117 54 118 109 0 31 -35 91 -67 115 -37 27 -101 31 -138 8z"/>
<path d="M5602 3018 c-15 -20 -20 -45 -32 -166 -6 -63 -26 -173 -46 -250 -48
-183 -50 -199 -29 -222 16 -18 32 -20 129 -20 61 0 141 3 178 6 l67 7 45 136
c50 150 97 331 90 342 -13 22 -340 179 -372 179 -11 0 -24 -6 -30 -12z"/>
</g>
</svg>
