<?xml version="1.0" encoding="utf-8"?>
<!-- Generator: Adobe Illustrator 16.0.0, SVG Export Plug-In . SVG Version: 6.00 Build 0)  -->
<!DOCTYPE svg PUBLIC "-//W3C//DTD SVG 1.1//EN" "http://www.w3.org/Graphics/SVG/1.1/DTD/svg11.dtd">
<svg version="1.1" id="Layer_1" xmlns="http://www.w3.org/2000/svg" xmlns:xlink="http://www.w3.org/1999/xlink" x="0px" y="0px"
	 width="175.667px" height="60.899px" viewBox="0 0 175.667 60.899" enable-background="new 0 0 175.667 60.899"
	 xml:space="preserve">
<g>
	<path fill="none" d="M77.117,19.946c0.588,0.171,1.809-0.217,2.252,0.565c0.676,1.198-0.775,1.675-1.341,2.439
		c-0.303,0.41-0.697,0.757-1.073,1.107c-1.073,0.999-1.034,1.967,0.026,2.948c0.471,0.437,0.863,0.972,1.373,1.352
		c1.877,1.399,1.49,2.641-0.112,3.967c-0.987,0.817-1.855,1.781-2.75,2.705c-1.162,1.198-2.364,2.367-3.417,3.656
		c-0.55,0.672-0.997,1.563-0.134,2.423c0.882,0.877,1.854,0.843,2.774,0.155c0.716-0.535,1.334-1.205,1.973-1.84
		c1.637-1.625,3.339-3.196,4.864-4.923c1.166-1.32,1.96-1.128,3.069,0.065c1.924,2.071,3.964,4.041,6.022,5.98
		c0.7,0.66,1.677,0.789,2.463,0.109c0.812-0.701,0.702-1.665,0.141-2.441c-0.597-0.825-1.36-1.535-2.086-2.26
		c-3.001-3.002-5.993-6.014-9.036-8.973c-1.026-0.997-1.084-1.721-0.117-2.901c1.708-2.086,3.733-2.226,5.845-1.168
		c4.223,2.116,7.369-0.227,10.561-2.34c0.826-0.548,1.507-1.541,0.747-2.65c-0.694-1.014-1.713-1.032-2.74-0.532
		c-0.457,0.222-0.896,0.521-1.272,0.862c-2.63,2.386-5.445,1.395-8.208,0.405c-1.395-0.499-1.727-1.997-0.717-3.013
		c0.623-0.627,1.535-0.965,2.165-1.587c3.58-3.534,2.335-9.326-2.324-10.976c-3.097-1.096-6.632,0.303-8.186,3.241
		c-1.545,2.923-0.504,6.296,2.641,8.69c0.524,0.398,1.705,0.555,1.108,1.578c-0.395,0.677-1.196,0.224-1.734-0.054
		c-4.143-2.141-7.018,0.661-10.089,2.593c-0.992,0.624-1.267,1.675-0.572,2.678c0.61,0.88,1.569,0.785,2.427,0.343
		c0.796-0.412,1.573-0.882,2.288-1.421C74.825,20.067,75.783,19.85,77.117,19.946z M124.699,29.27c0-6.949,0.003-6.915-6.157-6.392
		c-1.24,0.105-1.855,0.39-1.875,1.774c-0.02,1.342,0.417,1.888,1.766,1.771c0.619-0.054,1.299-0.09,1.793,0.461
		c1.352,1.514,0.109,6.282-1.894,6.844c-3.167,0.89-6.169,0.438-8.644-1.863c-3.42-3.182-4.018-10.083-1.351-14.356
		c2.476-3.965,6.476-5.018,11.742-2.838c1.446,0.598,1.958,0.253,2.68-0.949c0.841-1.401,0.384-2.103-0.858-2.708
		c-2.358-1.149-4.823-1.762-7.459-1.45c-8.452,1.005-13.559,8.166-12.124,16.982c1.378,8.469,7.587,12.697,16.252,11.064
		c5.548-1.045,6.128-1.725,6.128-7.181C124.699,30.042,124.699,29.656,124.699,29.27z M164.128,28.631
		c1.803,0,3.611-0.079,5.41,0.023c1.746,0.098,2.183-0.752,2.229-2.314c0.115-3.796-1.965-7.074-5.523-8.468
		c-4.511-1.768-9.677-0.146-12.254,3.849c-2.519,3.905-2.094,10.289,0.89,13.368c2.885,2.977,9.854,3.763,13.395,1.577
		c0.85-0.525,1.023-1.024,0.507-1.846c-0.448-0.713-0.622-1.874-1.884-1.255c-1.07,0.526-2.2,0.733-3.354,0.831
		c-2.951,0.253-5.604-1.11-6.393-3.315c-0.503-1.407-0.479-2.548,1.563-2.46C160.516,28.698,162.322,28.637,164.128,28.631z
		 M37.192,27.595c0-2.449-0.056-4.899,0.02-7.346c0.049-1.586-0.002-2.668-2.163-2.651c-2.068,0.016-1.884,1.163-1.877,2.483
		c0.018,3.093,0.043,6.187-0.005,9.28c-0.049,3.1-1.964,4.995-5.017,5.077c-2.794,0.076-4.062-1.36-4.104-4.783
		c-0.043-3.48-0.061-6.961,0.004-10.439c0.029-1.545-0.872-1.603-1.985-1.552c-1,0.046-2.124-0.229-2.097,1.437
		c0.073,4.509-0.03,9.023,0.137,13.528c0.097,2.607,1.75,4.182,4.218,4.917c1.939,0.575,3.831,0.35,5.672-0.376
		c1.372-0.541,2.404-1.074,4.116-0.063c1.965,1.162,3.04,0.036,3.074-2.548C37.215,32.236,37.191,29.916,37.192,27.595z
		 M17.035,20.801c0.031,0,0.062,0,0.092,0c0-2.832-0.061-5.664,0.024-8.492c0.048-1.602-0.413-2.29-2.161-2.278
		c-1.67,0.011-2.328,0.537-2.25,2.213c0.09,1.926,0.028,3.86,0.019,5.79c-0.019,3.73,0.165,7.478-0.126,11.188
		c-0.362,4.616-4.227,6.311-8.001,3.715c-0.31-0.213-0.481-0.639-0.8-0.825c-1.186-0.694-2.654-0.933-3.561,0.016
		c-0.73,0.765,0.192,1.941,0.729,2.775c0.402,0.625,1.03,1.156,1.658,1.579c5.872,3.956,13.824,0.225,14.341-6.805
		C17.215,26.732,17.035,23.76,17.035,20.801z M133.108,11.941c0.004-1.336-0.63-2.367-1.928-2.49
		c-1.299-0.123-1.903-0.746-2.69-1.71c-7.64-9.369-24.79-8.958-31.167,4.517c-0.269,0.568-0.487,1.197-0.551,1.817
		c-0.089,0.868,0.446,1.486,1.223,1.764c0.69,0.247,1.292-0.171,1.65-0.706c0.568-0.851,1.035-1.774,1.503-2.688
		c2.955-5.76,11.198-9.266,17.151-7.217c2.492,0.857,4.705,1.962,6.646,3.734c1.271,1.16,3.55,1.243,3.139,4.024
		c-0.188,1.266,1.436,1.981,2.923,1.706C132.528,14.412,133.164,13.435,133.108,11.941z M63.633,37.852
		c0.387-0.021,0.899-0.073,1.412-0.073c1.491,0.001,2.378-0.426,2.335-2.219c-0.05-2.093-1.29-1.25-2.341-1.243
		c-2.758,0.018-3.761-0.821-3.93-3.571c-0.165-2.688-0.042-5.394-0.105-8.089c-0.03-1.275,0.412-1.944,1.771-1.844
		c0.639,0.047,1.286-0.021,1.926,0.004c1.182,0.048,1.962-0.21,1.943-1.673c-0.02-1.595-1.063-1.41-2.088-1.481
		c-3.238-0.225-3.354-0.235-3.504-3.57c-0.094-2.082-0.998-1.917-2.464-1.42c-1.362,0.46-1.74,1.402-1.663,2.657
		c0.094,1.539-0.366,2.492-2.127,2.363c-0.899-0.065-1.426,0.337-1.428,1.334c-0.002,1.017,0.211,1.851,1.437,1.768
		c2.125-0.143,2.141,1.212,2.119,2.736c-0.04,2.697-0.106,5.401,0.033,8.091C57.188,36.089,59.126,37.86,63.633,37.852z
		 M45.53,37.847c0.385,0,0.772,0.021,1.156-0.003c3.717-0.228,6.15-1.96,6.657-4.729c0.545-2.979-0.875-5.234-4.349-6.862
		c-1.044-0.489-2.124-0.902-3.16-1.405c-1.12-0.543-1.978-1.405-1.666-2.72c0.356-1.496,1.705-1.88,3.017-1.85
		c1.002,0.023,1.99,0.459,2.993,0.664c0.995,0.202,1.316-0.531,1.628-1.258c0.416-0.967-0.126-1.481-0.917-1.751
		c-2.757-0.939-5.55-1.142-8.27,0.076c-2.998,1.342-3.861,4.698-1.985,7.431c0.907,1.323,2.26,2.041,3.662,2.722
		c1.262,0.614,2.519,1.272,3.673,2.062c0.906,0.62,1.238,1.642,0.948,2.733c-0.305,1.146-1.228,1.574-2.309,1.737
		c-1.318,0.198-2.576-0.054-3.729-0.672c-1.027-0.552-1.756-0.794-2.354,0.616c-0.625,1.474-0.105,2.124,1.221,2.589
		C42.979,37.661,44.237,37.836,45.53,37.847z M144.212,30.501c-0.657-1.585-1.009-2.398-1.332-3.222
		c-1.078-2.74-2.104-5.501-3.237-8.218c-0.524-1.259-2.688-1.998-3.881-1.268c-1.222,0.749-0.329,1.791,0.026,2.606
		c2.305,5.278,4.664,10.532,7.017,15.79c0.304,0.678,0.47,1.649,1.426,1.577c0.856-0.067,1.092-0.946,1.414-1.657
		c2.426-5.364,4.898-10.708,7.31-16.079c0.994-2.217,0.688-2.443-1.776-2.405c-1.535,0.024-1.925,0.941-2.378,2.021
		C147.365,23.06,145.918,26.468,144.212,30.501z M163.2,50.712c4.294-1.68,4.907-2.214,5.431-4.584
		c1.067-4.851,1.067-4.851-3.917-5.423c-3.516-0.403-6.041,2.101-5.296,5.639c0.608,2.896,0.722,5.535-0.646,8.281
		c-0.983,1.978-0.251,3.78,1.5,4.495c2.32,0.948,4.766,1.103,7.068,0.066c1.548-0.698,2.805-1.931,2.687-3.861
		c-0.105-1.716-1.199-2.799-2.743-3.374C166.094,51.506,164.851,51.205,163.2,50.712z M135.296,46.943
		c-0.051,3.763,2.653,6.444,6.501,6.45c3.801,0.005,6.633-2.779,6.613-6.5c-0.019-3.359-3.34-6.476-6.837-6.459
		C138.747,40.448,134.822,43.733,135.296,46.943z M133.101,27.489c0-1.792,0.027-3.583-0.006-5.374
		c-0.086-4.876,1.008-4.388-4.476-4.445c-0.384-0.004-0.768,0.005-1.151,0.009c-0.816,0.008-1.554,0.137-1.569,1.185
		c-0.014,0.893-0.107,2.003,1.181,1.948c2.25-0.096,2.002,1.399,2.002,2.812c-0.001,3.966,0.034,7.932-0.012,11.898
		c-0.015,1.328,0.533,1.8,1.818,1.778c1.242-0.023,2.28-0.03,2.23-1.752C133.043,32.864,133.099,30.176,133.101,27.489z
		 M149.946,47.015c0,1.406-0.02,2.812,0.006,4.219c0.017,0.873-0.111,1.92,1.186,1.991c1.339,0.071,1.284-0.967,1.298-1.858
		c0.025-1.661-0.091-3.332,0.032-4.984c0.157-2.102,1.287-3.113,3.172-2.899c0.871,0.101,1.979,1.322,2.122-0.676
		c0.112-1.579-0.896-1.859-2.194-1.941c-5.607-0.351-5.605-0.369-5.619,5.382C149.948,46.503,149.948,46.758,149.946,47.015z
		 M133.573,50.619c-0.298-1.46-0.845-2.673-2.605-2.765c-1.63-0.085-3.066,1.193-2.932,2.776c0.136,1.607,1.109,2.589,2.736,2.598
		C132.426,53.239,133.235,52.142,133.573,50.619z"/>
	<path fill-rule="evenodd" clip-rule="evenodd" fill="#F9AD5A" d="M77.117,19.946c-1.334-0.097-2.292,0.121-3.171,0.782
		c-0.714,0.539-1.492,1.009-2.288,1.421c-0.857,0.442-1.816,0.538-2.427-0.343c-0.695-1.002-0.42-2.054,0.572-2.678
		c3.071-1.932,5.946-4.733,10.089-2.593c0.539,0.278,1.34,0.73,1.734,0.054c0.597-1.023-0.584-1.179-1.108-1.578
		c-3.145-2.394-4.187-5.767-2.641-8.69c1.554-2.938,5.089-4.337,8.186-3.241c4.66,1.649,5.904,7.441,2.324,10.976
		c-0.63,0.622-1.542,0.96-2.165,1.587c-1.01,1.017-0.678,2.514,0.717,3.013c2.764,0.99,5.579,1.981,8.208-0.405
		c0.376-0.341,0.815-0.64,1.272-0.862c1.027-0.5,2.046-0.482,2.74,0.532c0.76,1.109,0.079,2.102-0.747,2.65
		c-3.192,2.114-6.338,4.456-10.561,2.34c-2.112-1.058-4.137-0.918-5.845,1.168c-0.967,1.18-0.909,1.905,0.117,2.901
		c3.043,2.959,6.035,5.971,9.036,8.973c0.726,0.725,1.489,1.435,2.086,2.26c0.561,0.776,0.671,1.74-0.141,2.441
		c-0.786,0.68-1.763,0.551-2.463-0.109c-2.058-1.939-4.098-3.909-6.022-5.98c-1.109-1.193-1.903-1.385-3.069-0.065
		c-1.525,1.727-3.228,3.298-4.864,4.923c-0.638,0.635-1.257,1.305-1.973,1.84c-0.92,0.688-1.892,0.722-2.774-0.155
		c-0.863-0.86-0.416-1.751,0.134-2.423c1.053-1.289,2.255-2.458,3.417-3.656c0.896-0.924,1.764-1.888,2.75-2.705
		c1.602-1.326,1.989-2.567,0.112-3.967c-0.51-0.38-0.902-0.916-1.373-1.352c-1.061-0.981-1.099-1.95-0.026-2.948
		c0.376-0.351,0.771-0.697,1.073-1.107c0.565-0.764,2.017-1.241,1.341-2.439C78.926,19.729,77.705,20.117,77.117,19.946z
		 M84.041,5.53c-1.87-0.123-3.615,1.56-3.696,3.563c-0.087,2.16,1.287,3.805,3.296,3.947c1.84,0.131,3.665-1.583,3.783-3.551
		C87.54,7.553,85.917,5.653,84.041,5.53z"/>
	<path fill-rule="evenodd" clip-rule="evenodd" fill="#763E86" d="M124.699,29.27c0,0.387,0,0.773,0,1.16
		c0,5.456-0.58,6.135-6.128,7.181c-8.665,1.633-14.874-2.595-16.252-11.064c-1.435-8.817,3.672-15.978,12.124-16.982
		c2.636-0.312,5.101,0.301,7.459,1.45c1.242,0.605,1.699,1.307,0.858,2.708c-0.722,1.202-1.234,1.547-2.68,0.949
		c-5.266-2.179-9.266-1.127-11.742,2.838c-2.667,4.273-2.069,11.174,1.351,14.356c2.474,2.301,5.477,2.753,8.644,1.863
		c2.003-0.562,3.246-5.33,1.894-6.844c-0.494-0.551-1.174-0.515-1.793-0.461c-1.349,0.117-1.786-0.428-1.766-1.771
		c0.02-1.384,0.635-1.669,1.875-1.774C124.702,22.355,124.699,22.32,124.699,29.27z"/>
	<path fill-rule="evenodd" clip-rule="evenodd" fill="#763E86" d="M164.128,28.634c-1.806,0.003-3.612,0.064-5.413-0.014
		c-2.042-0.088-2.066,1.053-1.563,2.46c0.789,2.206,3.441,3.569,6.393,3.315c1.153-0.098,2.283-0.305,3.354-0.831
		c1.262-0.619,1.436,0.542,1.884,1.255c0.517,0.822,0.343,1.32-0.507,1.846c-3.54,2.186-10.51,1.4-13.395-1.577
		c-2.983-3.079-3.408-9.463-0.89-13.368c2.577-3.995,7.743-5.617,12.254-3.849c3.559,1.395,5.639,4.672,5.523,8.468
		c-0.047,1.562-0.483,2.413-2.229,2.314C167.739,28.552,165.931,28.631,164.128,28.634z M162.331,25.712
		c1.157,0,2.316-0.036,3.472,0.009c1.627,0.062,1.986-0.502,1.397-2.07c-0.804-2.142-2.358-2.908-4.452-3.004
		c-2.228-0.102-4.028,0.573-5.116,2.681c-0.909,1.763-0.691,2.261,1.229,2.372C160.015,25.768,161.174,25.712,162.331,25.712z"/>
	<path fill-rule="evenodd" clip-rule="evenodd" fill="#763E86" d="M37.191,27.595c0,2.32,0.024,4.641-0.007,6.96
		c-0.034,2.584-1.108,3.71-3.074,2.548c-1.711-1.011-2.744-0.478-4.116,0.063c-1.841,0.727-3.732,0.952-5.672,0.376
		c-2.468-0.734-4.122-2.31-4.218-4.917c-0.167-4.504-0.063-9.019-0.137-13.528c-0.027-1.666,1.097-1.391,2.097-1.437
		c1.113-0.051,2.014,0.007,1.985,1.552c-0.065,3.479-0.048,6.959-0.004,10.439c0.043,3.423,1.311,4.859,4.104,4.783
		c3.053-0.082,4.968-1.977,5.017-5.077c0.048-3.093,0.022-6.187,0.005-9.28c-0.007-1.32-0.191-2.467,1.877-2.483
		c2.161-0.017,2.212,1.065,2.163,2.651C37.136,22.696,37.192,25.146,37.191,27.595z"/>
	<path fill-rule="evenodd" clip-rule="evenodd" fill="#763E86" d="M17.035,20.801c0,2.959,0.181,5.931-0.036,8.875
		c-0.517,7.03-8.47,10.761-14.341,6.805c-0.628-0.423-1.256-0.953-1.658-1.579c-0.537-0.834-1.459-2.011-0.729-2.775
		c0.907-0.949,2.375-0.71,3.561-0.016c0.318,0.187,0.49,0.612,0.8,0.825c3.775,2.596,7.64,0.901,8.001-3.715
		c0.292-3.71,0.107-7.457,0.126-11.188c0.009-1.93,0.071-3.864-0.019-5.79c-0.078-1.676,0.58-2.202,2.25-2.213
		c1.748-0.011,2.208,0.676,2.161,2.278c-0.084,2.828-0.024,5.661-0.024,8.492C17.097,20.801,17.065,20.801,17.035,20.801z"/>
	<path fill-rule="evenodd" clip-rule="evenodd" fill="#F9AD5A" d="M133.111,11.942c0.053,1.493-0.583,2.47-2.104,2.751
		c-1.487,0.275-3.11-0.44-2.923-1.706c0.411-2.782-1.867-2.864-3.139-4.024c-1.941-1.772-4.154-2.877-6.646-3.734
		c-5.953-2.048-14.196,1.458-17.151,7.217c-0.468,0.914-0.935,1.837-1.503,2.688c-0.358,0.535-0.96,0.953-1.65,0.706
		c-0.776-0.278-1.312-0.896-1.223-1.764c0.063-0.62,0.282-1.249,0.551-1.817c6.378-13.476,23.527-13.886,31.167-4.517
		c0.787,0.964,1.392,1.587,2.69,1.71C132.479,9.574,133.112,10.605,133.111,11.942z"/>
	<path fill-rule="evenodd" clip-rule="evenodd" fill="#763E86" d="M63.633,37.852c-4.506,0.009-6.444-1.763-6.675-6.23
		c-0.139-2.69-0.073-5.394-0.033-8.091c0.022-1.524,0.006-2.879-2.119-2.736c-1.225,0.083-1.439-0.751-1.437-1.768
		c0.002-0.998,0.529-1.4,1.428-1.334c1.761,0.128,2.221-0.825,2.127-2.363c-0.077-1.254,0.301-2.196,1.663-2.657
		c1.467-0.497,2.37-0.661,2.464,1.42c0.15,3.335,0.267,3.346,3.504,3.57c1.025,0.071,2.069-0.114,2.088,1.481
		c0.019,1.462-0.762,1.721-1.943,1.673c-0.64-0.025-1.287,0.042-1.926-0.004c-1.359-0.1-1.801,0.569-1.771,1.844
		c0.062,2.696-0.06,5.401,0.105,8.089c0.169,2.75,1.172,3.589,3.93,3.571c1.051-0.006,2.291-0.85,2.341,1.243
		c0.042,1.793-0.844,2.22-2.335,2.219C64.532,37.779,64.02,37.831,63.633,37.852z"/>
	<path fill-rule="evenodd" clip-rule="evenodd" fill="#763E86" d="M45.53,37.849c-1.293-0.012-2.551-0.188-3.783-0.621
		c-1.326-0.465-1.846-1.115-1.221-2.589c0.598-1.411,1.327-1.168,2.354-0.616c1.153,0.618,2.412,0.87,3.729,0.672
		c1.081-0.163,2.004-0.592,2.309-1.737c0.29-1.091-0.042-2.113-0.948-2.733c-1.154-0.791-2.411-1.448-3.673-2.062
		c-1.402-0.681-2.755-1.399-3.662-2.722c-1.876-2.733-1.013-6.089,1.985-7.431c2.72-1.218,5.513-1.016,8.27-0.076
		c0.791,0.27,1.333,0.784,0.917,1.751c-0.312,0.727-0.634,1.46-1.628,1.258c-1.003-0.204-1.991-0.641-2.993-0.664
		c-1.312-0.03-2.661,0.354-3.017,1.85c-0.312,1.315,0.545,2.177,1.666,2.72c1.036,0.503,2.116,0.916,3.16,1.405
		c3.474,1.628,4.894,3.883,4.349,6.862c-0.506,2.769-2.94,4.501-6.657,4.729C46.302,37.868,45.916,37.847,45.53,37.849z"/>
	<path fill-rule="evenodd" clip-rule="evenodd" fill="#763E86" d="M144.212,30.501c1.706-4.033,3.153-7.441,4.588-10.855
		c0.453-1.08,0.843-1.997,2.378-2.021c2.465-0.038,2.771,0.188,1.776,2.405c-2.411,5.371-4.884,10.715-7.31,16.079
		c-0.322,0.711-0.558,1.59-1.414,1.657c-0.956,0.072-1.122-0.899-1.426-1.577c-2.353-5.258-4.712-10.512-7.017-15.79
		c-0.355-0.816-1.248-1.858-0.026-2.606c1.192-0.729,3.356,0.009,3.881,1.268c1.133,2.717,2.159,5.478,3.237,8.218
		C143.203,28.103,143.555,28.916,144.212,30.501z"/>
	<path fill-rule="evenodd" clip-rule="evenodd" fill="#F9AD5A" d="M163.2,50.712c1.65,0.493,2.894,0.794,4.084,1.239
		c1.544,0.575,2.638,1.658,2.743,3.374c0.118,1.931-1.139,3.163-2.687,3.861c-2.303,1.036-4.748,0.882-7.068-0.066
		c-1.751-0.715-2.483-2.518-1.5-4.495c1.367-2.746,1.254-5.386,0.646-8.281c-0.745-3.538,1.78-6.042,5.296-5.639
		c4.984,0.572,4.984,0.572,3.917,5.423C168.107,48.498,167.494,49.032,163.2,50.712z M164.09,57.354
		c1.199-0.19,2.939,0.028,2.802-1.786c-0.124-1.64-1.856-1.51-3.08-1.623c-1.235-0.113-2.564,0.352-2.603,1.684
		C161.159,57.443,162.822,57.22,164.09,57.354z M165.993,45.003c-0.237-1.151-0.975-1.712-2.139-1.656
		c-1.173,0.056-1.982,0.746-1.982,1.876c-0.001,1.099,0.724,1.864,1.925,1.941C165.297,47.259,165.664,46.166,165.993,45.003z"/>
	<path fill-rule="evenodd" clip-rule="evenodd" fill="#F9AD5A" d="M135.296,46.943c-0.474-3.21,3.451-6.495,6.277-6.509
		c3.497-0.017,6.818,3.1,6.837,6.459c0.02,3.721-2.812,6.505-6.613,6.5C137.949,53.388,135.245,50.706,135.296,46.943z
		 M141.853,50.418c1.973-0.062,3.463-1.478,3.494-3.318c0.031-1.907-1.712-3.723-3.599-3.747c-1.929-0.025-3.451,1.73-3.335,3.85
		C138.529,49.346,139.747,50.484,141.853,50.418z"/>
	<path fill-rule="evenodd" clip-rule="evenodd" fill="#763E86" d="M133.099,27.489c0,2.687-0.056,5.375,0.021,8.059
		c0.05,1.722-0.988,1.729-2.23,1.752c-1.285,0.022-1.833-0.45-1.818-1.778c0.046-3.966,0.011-7.932,0.012-11.898
		c0-1.412,0.248-2.908-2.002-2.812c-1.289,0.055-1.195-1.055-1.181-1.948c0.015-1.048,0.753-1.177,1.569-1.185
		c0.384-0.003,0.768-0.013,1.151-0.009c5.483,0.057,4.39-0.431,4.476,4.445C133.128,23.906,133.101,25.698,133.099,27.489z"/>
	<path fill-rule="evenodd" clip-rule="evenodd" fill="#F9AD5A" d="M149.946,47.015c0.002-0.257,0.002-0.512,0.002-0.768
		c0.014-5.75,0.012-5.732,5.619-5.382c1.299,0.082,2.307,0.362,2.194,1.941c-0.144,1.999-1.251,0.777-2.122,0.676
		c-1.885-0.214-3.015,0.798-3.172,2.899c-0.123,1.652-0.007,3.323-0.032,4.984c-0.014,0.892,0.041,1.93-1.298,1.858
		c-1.297-0.071-1.169-1.118-1.186-1.991C149.927,49.827,149.946,48.421,149.946,47.015z"/>
	<path fill-rule="evenodd" clip-rule="evenodd" fill="#763E86" d="M133.573,50.619c-0.338,1.522-1.147,2.62-2.801,2.609
		c-1.627-0.009-2.601-0.99-2.736-2.598c-0.135-1.583,1.302-2.861,2.932-2.776C132.729,47.946,133.275,49.159,133.573,50.619z"/>
	<path fill-rule="evenodd" clip-rule="evenodd" fill="none" d="M84.041,5.53c1.876,0.123,3.499,2.023,3.383,3.96
		c-0.119,1.968-1.943,3.682-3.783,3.551c-2.009-0.143-3.383-1.788-3.296-3.947C80.426,7.09,82.171,5.407,84.041,5.53z"/>
	<path fill-rule="evenodd" clip-rule="evenodd" fill="none" d="M162.331,25.712c-1.157,0-2.316,0.055-3.471-0.012
		c-1.92-0.111-2.138-0.609-1.229-2.372c1.088-2.108,2.889-2.783,5.116-2.681c2.094,0.096,3.648,0.862,4.452,3.004
		c0.589,1.568,0.229,2.132-1.397,2.07C164.647,25.677,163.488,25.712,162.331,25.712z"/>
	<path fill-rule="evenodd" clip-rule="evenodd" fill="none" d="M164.09,57.354c-1.268-0.135-2.931,0.089-2.881-1.726
		c0.038-1.332,1.367-1.797,2.603-1.684c1.224,0.113,2.956-0.017,3.08,1.623C167.029,57.383,165.289,57.164,164.09,57.354z"/>
	<path fill-rule="evenodd" clip-rule="evenodd" fill="none" d="M165.993,45.003c-0.329,1.163-0.696,2.256-2.196,2.161
		c-1.201-0.077-1.926-0.843-1.925-1.941c0-1.13,0.81-1.82,1.982-1.876C165.019,43.291,165.756,43.852,165.993,45.003z"/>
	<path fill-rule="evenodd" clip-rule="evenodd" fill="none" d="M141.853,50.418c-2.105,0.066-3.323-1.072-3.439-3.216
		c-0.116-2.119,1.406-3.875,3.335-3.85c1.887,0.024,3.63,1.84,3.599,3.747C145.315,48.94,143.825,50.355,141.853,50.418z"/>
</g>
</svg>
