<?xml version="1.0" encoding="utf-8"?>
<!-- Generator: Adobe Illustrator 16.0.0, SVG Export Plug-In . SVG Version: 6.00 Build 0)  -->
<!DOCTYPE svg PUBLIC "-//W3C//DTD SVG 1.1//EN" "http://www.w3.org/Graphics/SVG/1.1/DTD/svg11.dtd">
<svg version="1.1" id="Capa_1" xmlns="http://www.w3.org/2000/svg" xmlns:xlink="http://www.w3.org/1999/xlink" x="0px" y="0px"
   width="28px" height="28px" viewBox="112.806 109.807 28 28" enable-background="new 112.806 109.807 28 28" xml:space="preserve">
<path fill="#555555" d="M138.739,109.807h-23.864c-1.143,0-2.069,0.898-2.069,2.006V135.8c0,1.108,0.926,2.007,2.069,2.007h23.864
  c1.143,0,2.067-0.898,2.067-2.007v-23.986C140.806,110.706,139.881,109.807,138.739,109.807z M121.23,132.898
  c0,0.355-0.288,0.644-0.644,0.644h-2.74c-0.355,0-0.644-0.288-0.644-0.644V121.21c0-0.356,0.288-0.644,0.644-0.644h2.74
  c0.356,0,0.644,0.289,0.644,0.644V132.898L121.23,132.898z M119.211,119.072c-1.244,0.025-2.337-1.014-2.337-2.339
  c0-1.286,1.059-2.335,2.353-2.333c1.279,0.001,2.333,1.057,2.331,2.342C121.555,118.086,120.438,119.101,119.211,119.072z
   M136.258,124.669v8.605c0,0.148-0.119,0.268-0.267,0.268l-3.502-0.001c-0.147,0-0.267-0.12-0.267-0.268v-7.217
  c0-0.624-0.253-1.189-0.662-1.598c-0.414-0.415-0.989-0.668-1.624-0.662c-1.242,0.014-2.233,1.045-2.233,2.288v7.187
  c0,0.148-0.119,0.268-0.267,0.268l-3.493-0.001c-0.147,0-0.267-0.12-0.267-0.268v-12.44c0-0.148,0.12-0.268,0.268-0.268h3.417
  c0.148,0,0.268,0.12,0.268,0.268v1.435c0,0,0.014,0.001,0.037,0.004c0.065-0.119,0.138-0.235,0.216-0.346
  c0.712-1.022,1.896-1.691,3.237-1.691h0.702C134.272,120.232,136.258,122.219,136.258,124.669L136.258,124.669L136.258,124.669z"/>
</svg>
