<?xml version="1.0" encoding="utf-8"?>
<!-- Generator: Adobe Illustrator 16.0.0, SVG Export Plug-In . SVG Version: 6.00 Build 0)  -->
<!DOCTYPE svg PUBLIC "-//W3C//DTD SVG 1.1//EN" "http://www.w3.org/Graphics/SVG/1.1/DTD/svg11.dtd">
<svg version="1.1" id="Layer_1" xmlns="http://www.w3.org/2000/svg" xmlns:xlink="http://www.w3.org/1999/xlink" x="0px" y="0px"
	 width="100.001px" height="100px" viewBox="0 0 100.001 100" enable-background="new 0 0 100.001 100" xml:space="preserve">
<g>
	<rect x="20.634" y="14.938" fill="#FFFFFF" width="75.1" height="77.678"/>
	<g>
		<path fill-rule="evenodd" clip-rule="evenodd" fill="#231F20" d="M99.978,50.226c0,13.164,0.007,26.328-0.003,39.493
			c-0.006,7.351-2.961,10.275-10.383,10.277c-26.417,0.006-52.835,0.006-79.252-0.001C2.955,99.994,0.008,97.05,0.006,89.673
			c-0.007-26.498-0.009-52.997,0.001-79.496C0.01,2.972,2.996,0.016,10.26,0.014C36.762,0.005,63.264,0.018,89.767,0
			c3.155-0.002,6.428,0.208,8.186,3.081c1.205,1.972,1.907,4.563,1.938,6.89C100.067,23.387,99.978,36.807,99.978,50.226z
			 M43.867,41.675c0,4.376,0,8.397,0,12.681c2.789,0,5.374,0,8.256,0c0,11.165,0,22.062,0,32.94c5.007,0,9.704,0,14.568,0
			c0-11.045,0-21.888,0-33.108c4.253,0,8.346,0,12.403,0c0-4.342,0-8.304,0-12.627c-4.22,0-8.312,0-12.508,0
			c0-1.125,0.006-1.885-0.001-2.645c-0.061-6.28,1.002-7.382,7.328-7.522c1.736-0.039,3.473-0.006,5.176-0.006
			c0-4.467,0-8.427,0-13.156c-6.491,0.619-12.809,0.983-19.046,1.897c-4.357,0.639-6.672,3.805-7.262,8.09
			c-0.346,2.513-0.485,5.06-0.611,7.596c-0.095,1.897-0.019,3.803-0.019,5.86C49.054,41.675,46.527,41.675,43.867,41.675z"/>
	</g>
</g>
</svg>
