<?xml version="1.0" encoding="utf-8"?>
<!-- Generator: Adobe Illustrator 16.0.0, SVG Export Plug-In . SVG Version: 6.00 Build 0)  -->
<!DOCTYPE svg PUBLIC "-//W3C//DTD SVG 1.1//EN" "http://www.w3.org/Graphics/SVG/1.1/DTD/svg11.dtd">
<svg version="1.1" id="Layer_1" xmlns="http://www.w3.org/2000/svg" xmlns:xlink="http://www.w3.org/1999/xlink" x="0px" y="0px"
	 width="177.614px" height="74.711px" viewBox="0 0 177.614 74.711" enable-background="new 0 0 177.614 74.711"
	 xml:space="preserve">
<g>
	<path fill="#8CB061" d="M168.018,27.525c-0.031-0.289-0.119-0.561-0.248-0.809c-0.018-0.15-0.043-0.298-0.086-0.441
		c0.008-0.023,0.018-0.047,0.027-0.071c-0.592-0.706-0.77-1.728-0.531-2.622c-0.074-0.233-0.141-0.469-0.219-0.698
		c0.002-0.097-0.004-0.196-0.01-0.295c-0.184-0.339-0.301-0.723-0.363-1.115c-0.096-0.185-0.18-0.377-0.227-0.583
		c-0.135-0.209-0.281-0.412-0.453-0.594c-4.104-8.722-12.965-14.767-23.244-14.767c-14.189,0-25.691,11.502-25.691,25.69
		c0,3.475,0.691,6.785,1.939,9.806c0.521-1.056,1.197-2.057,1.963-2.987c0.021-0.161,0.061-0.318,0.127-0.473
		c0.889-2.124,2.51-4.357,4.113-5.95c0.406-0.402,0.814,0.105,1.346,0.014c-0.346-0.324-0.643-0.71-0.844-1.181
		c-0.984-2.294-0.562-6.003,1.707-7.52c0.064-1.468,1.266-2.496,2.691-2.575c1.482-0.083,3.033,0.021,4.332,0.807
		c1.729,1.048,2.385,3.252,1.896,5.155c-0.027,0.118-0.068,0.227-0.104,0.339c0.029,0.161,0.053,0.328,0.057,0.508
		c0.031,1.256-0.395,2.445-1.123,3.413c-0.064-0.201-0.176-0.392-0.318-0.554c-0.137,0.203-0.309,0.383-0.51,0.533
		c-0.635,0.064-1.152,0.584-1.203,1.222c-0.111,0.319-0.111,0.68,0.002,0.998c0.002,0.014,0.004,0.029,0.008,0.044
		c0.008,0.218,0.016,0.435,0.018,0.653c0,0.304,0.111,0.583,0.285,0.812c-0.062,3.819,0.127,7.643,0.141,11.463
		c0.01,3.07,0.314,6.333-0.074,9.43c2.357,0.915,4.881,1.496,7.518,1.672c0,0.106,0.004,0.212,0.004,0.319
		c0,0.176,0.027,0.333,0.08,0.475c0.08-0.007,0.16-0.013,0.246-0.013c0.234,0,0.453,0.027,0.654,0.073
		c0.363-2.674,0.291-5.458,0.373-8.14c0.09-2.864,0.588-5.855,0.303-8.712c0.131-0.316,0.148-0.679,0.053-1.008
		c-0.006-0.054-0.008-0.107-0.012-0.162c0.059-0.239,0.152-0.457,0.279-0.643c-0.201-0.046-0.385-0.116-0.553-0.2
		c-0.145-0.168-0.34-0.294-0.557-0.377c-0.041-0.039-0.088-0.076-0.127-0.117c-0.041,0.012-0.076,0.033-0.111,0.047
		c-0.158-0.033-0.311-0.042-0.457-0.024c-0.064-0.102-0.127-0.211-0.18-0.304c-0.152-0.267-0.148-0.267-0.23-0.598
		c-0.195-0.779-0.855-1.04-1.467-0.935c-0.039-0.638,0.074-1.187,0.307-1.661c-0.043-0.19-0.074-0.389-0.092-0.595
		c-0.092-1.023,0.412-2.251,1.23-2.887c0.613-0.478,0.992-0.701,1.734-0.981c0.24-0.09,0.486-0.161,0.736-0.225
		c0.529-0.136,1.07-0.106,1.561,0.055c0.135-0.022,0.275-0.037,0.414-0.037c0.336,0,0.668-0.009,0.996-0.033
		c1.4-0.267,2.82,0.474,3.211,1.9c0.025,0.084,0.043,0.167,0.055,0.25c0.66,0.78,0.809,1.952,0.449,2.91
		c0.381,0.61,0.531,1.355,0.289,2.064c-0.195,0.578-0.514,1.09-0.914,1.533c0.48,0.216,0.889,0.571,1.111,1.069
		c0.4,0.907,2.033,1.083,2.143,2.089c0.143,0.053-0.049,0.298,0.094,0.379c2.52,1.407,3.676,5.216,3.566,7.914
		c-0.008,0.189,0.061,0.384,0.021,0.554c0.303,0.609,0.334,1.235,0.598,1.868c1.088-0.715,2.078-2.042,3.041-2.909
		c0.021-0.41,0.17-0.287,0.387-0.659c0.461-0.796,0.859-1.578,1.455-2.292c0.141-0.169,0.295-0.328,0.445-0.489
		c0.094-0.348,0.238-0.671,0.422-0.958c0.209-0.437,0.529-0.826,0.949-1.114c0.129-0.124,0.254-0.254,0.367-0.395
		c0.078-0.095,0.172-0.179,0.27-0.257c0.172-0.351,0.414-0.665,0.732-0.904c0.043-0.139,0.1-0.271,0.164-0.399
		c0.068-0.031,0.141-0.056,0.207-0.094c0.525-0.307,0.842-0.776,1.031-1.343c0.068-0.202,0.143-0.4,0.217-0.6
		c0.268-0.551,0.385-1.101,0.217-1.708c-0.02-0.073-0.055-0.141-0.08-0.209c0.068-0.257,0.168-0.504,0.305-0.729
		c0.123-0.128,0.242-0.267,0.352-0.422c0.135-0.187,0.246-0.396,0.342-0.611c0.01-0.192,0.037-0.383,0.09-0.574
		c0.076-0.277,0.162-0.55,0.205-0.833c0,0.002,0,0.006,0,0.008c0-0.006,0.004-0.013,0.004-0.019
		c-0.475-0.451-0.744-1.082-0.805-1.735c-0.195-0.198-0.43-0.359-0.713-0.464c-0.037-0.372-0.016-0.75,0.084-1.11
		c-0.082-0.232-0.123-0.478-0.143-0.726c0.611-0.146,1.127-0.549,1.436-1.086c0.209-0.321,0.326-0.691,0.303-1.087
		c0-0.001,0-0.003,0-0.006v0v-0.001c0.029-0.145,0.047-0.293,0.047-0.444v-0.512C168.078,27.848,168.053,27.686,168.018,27.525z"/>
	<path fill="#231F20" d="M142.41,34.196c-0.992-0.203-1.578,0.629-1.311,1.279c0.252,0.611,0.914,1.094,1.568,0.859
		C144.041,35.843,143.189,34.355,142.41,34.196z"/>
	<path fill="#231F20" d="M133.275,28.418c1.322-0.171,1.945-2.16,0.648-2.679c-1.459-0.585-2.635,1.112-1.938,2.211
		C132.291,28.431,132.84,28.474,133.275,28.418z"/>
	<path fill="#231F20" d="M167.865,28.318c-0.229,0.056-0.449,0.13-0.674,0.204c-0.293,0.096-0.59,0.192-0.881,0.296
		c-0.168,0.059-0.334,0.122-0.496,0.186c-0.506,0.199-1.654,0.512-1.73,1.146c-0.07,0.6,0.039,1.189,0.055,1.764
		c0.01,0.335-0.008,0.638-0.012,0.957c-0.002,0.239-0.02,0.537,0.195,0.696c0.43,0.313,0.967,0.425,1.441,0.646
		c0.523,0.245,1.039,0.498,1.557,0.749c0.17,0.083,0.346,0.157,0.514,0.245c0.244-1.452,0.381-2.938,0.381-4.458
		c0-0.836-0.047-1.661-0.125-2.476C168.016,28.285,167.939,28.301,167.865,28.318z"/>
	<path fill="#231F20" d="M146.566,30.213c-0.004-0.001-0.006-0.001-0.01-0.001C146.617,30.225,146.656,30.223,146.566,30.213z"/>
	<path fill="#231F20" d="M176.111,14.332c-0.615-2.733-2.832-5.503-5.693-6.044c-1.873-0.355-3.805,0.254-5.434,1.161
		c-0.898,0.5-1.727,1.107-2.549,1.718c1.041-1.205,2.186-2.251,3.674-2.909c1.664-0.735,3.432-0.774,5.17-0.441
		c0.324,0.062,2.445,0.668,1.643-0.184c-0.826-0.875-2.414-1.253-3.564-1.21c-1.904,0.073-3.686,0.872-5.238,1.904
		c-0.941,0.625-2.018,1.375-2.68,2.312c0.143-1.592,0.602-3.046,1.924-4.217c0.83-0.735,1.809-1.276,2.779-1.799
		c0.666-0.356,1.533-0.699,2.029-1.291c1.027-1.219-2.354-1.41-2.867-1.405c-2.246,0.023-4.471,0.814-6.018,2.487
		c-1.133,1.227-1.852,2.759-2.445,4.321c-0.078-0.046-0.156-0.087-0.23-0.131c-0.014-0.179,0.047-0.395,0.074-0.563
		c0.172-0.983,0.412-2.014,0.926-2.88c0.713-1.202,1.828-2.055,3.045-2.706c1.002-0.537,2.039-1.155,3.199-1.238
		c0.309-0.022,0.619-0.029,0.93-0.068c0.041-0.007,0.521-0.091,0.492-0.135c-1.068-1.586-5.859,0.792-6.838,1.607
		c-0.566,0.471-1.074,1.01-1.494,1.616c-0.482,0.699-0.84,1.576-1.027,2.404c-0.031,0.138-0.295,0.986-0.318,1.357
		c-4.129-2.594-9.01-4.099-14.236-4.099c-14.807,0-26.852,12.045-26.852,26.852c0,0,0,0.001,0,0.003c0,0.001,0,0.002,0,0.005
		c0,13.342,9.783,24.44,22.557,26.502c1.975,0.471,4.029,0.728,6.146,0.728c14.621,0,26.516-11.895,26.516-26.516
		c0-5.735-1.838-11.047-4.945-15.391c0.193-0.005,0.385-0.002,0.576,0.027c0.014,0.002,0.029,0.002,0.041,0.001
		c0.174,0.027,0.357,0.055,0.549,0.073c1.182,0.108,2.436,1.466,3.227,2.288c0.432,0.448,0.771,0.958,1.307,1.291
		c0.309,0.194,1.047,0.624,1.367,0.233c0.334-0.406,0.01-1.299-0.119-1.729c-0.441-1.471-1.133-3.44-2.576-4.204
		c-1.131-0.601-2.645-0.624-3.877-0.379c-0.506,0.102-1.078,0.136-2.066,0.41c-0.037-0.045-0.074-0.088-0.111-0.131
		c1.924-1.006,4.18-2.283,6.348-1.621c1.234,0.377,2.287,1.22,3.293,2c0.746,0.58,1.758,1.607,2.76,1.69
		c0.447,0.038,0.633-0.242,0.689-0.603C176.248,15.062,176.172,14.613,176.111,14.332z M122.965,36.244
		c-1.008,2.05-1.574,4.182-1.893,6.431c-0.014,0.102-0.061,0.964-0.123,1.888c-0.549-0.928-1.043-1.894-1.473-2.894
		c0.439-1.889,1.365-3.562,2.115-4.939c0.654-1.209,1.393-2.192,2.24-3.275c0.535-0.685,2.012-2.191,2.133-1.776
		c0.039,0.134-1.363,1.886-2.029,2.852C123.594,35.027,123.232,35.698,122.965,36.244z M120.936,45.825
		c0,0.059-0.002,0.117-0.002,0.176c-0.482-0.645-0.936-1.314-1.357-2.006c-0.014-0.022-0.027-0.044-0.041-0.067
		c-0.199-0.331-0.393-0.666-0.578-1.006c-0.008-0.013-0.016-0.027-0.023-0.04c-0.572-1.057-1.076-2.161-1.498-3.302
		c-0.02-0.058-0.041-0.116-0.061-0.174c-0.115-0.317-0.225-0.638-0.326-0.961c-0.021-0.067-0.045-0.135-0.066-0.203
		c-0.105-0.352-0.209-0.706-0.301-1.065c-0.008-0.025-0.016-0.052-0.021-0.078c-0.104-0.401-0.199-0.805-0.281-1.213
		c-0.002-0.006-0.004-0.011-0.004-0.017c-0.076-0.376-0.143-0.755-0.203-1.137c-0.016-0.1-0.027-0.201-0.045-0.301
		c-0.041-0.295-0.078-0.588-0.111-0.884c-0.014-0.122-0.027-0.242-0.037-0.363c-0.029-0.292-0.049-0.587-0.068-0.885
		c-0.008-0.11-0.014-0.22-0.02-0.331c-0.02-0.402-0.031-0.808-0.031-1.214c0.002-12.879,9.604-23.553,22.021-25.255
		c-12.072,2.473-21.182,13.18-21.182,25.974C116.699,36.758,118.262,41.684,120.936,45.825z M146.676,57.076
		c0.205-0.042,0.408-0.09,0.611-0.135c0.053-0.013,0.109-0.025,0.164-0.037c0.256-0.061,0.506-0.124,0.756-0.19
		c0.074-0.019,0.152-0.039,0.229-0.06c0.227-0.062,0.451-0.128,0.672-0.197c0.102-0.028,0.199-0.058,0.299-0.089
		c0.199-0.063,0.393-0.127,0.588-0.195c0.125-0.042,0.248-0.083,0.371-0.127c0.166-0.061,0.332-0.123,0.5-0.186
		c0.148-0.058,0.299-0.113,0.443-0.173c0.139-0.054,0.275-0.112,0.41-0.17c0.174-0.073,0.346-0.146,0.516-0.222
		c0.111-0.049,0.217-0.1,0.326-0.149c0.197-0.09,0.391-0.182,0.584-0.279c0.082-0.038,0.164-0.081,0.246-0.123
		c0.215-0.107,0.432-0.219,0.645-0.335c0.057-0.028,0.113-0.062,0.168-0.093c0.236-0.128,0.469-0.26,0.701-0.395
		c0.033-0.021,0.068-0.043,0.104-0.064c0.25-0.148,0.496-0.299,0.74-0.455c0.018-0.01,0.035-0.023,0.053-0.034
		c0.258-0.168,0.516-0.339,0.768-0.513c0.004-0.002,0.01-0.006,0.016-0.009c4.146-2.873,7.451-6.881,9.459-11.573
		c0.004-0.003,0.006-0.009,0.008-0.01c0-0.014,0.002-0.027,0.01-0.04c-0.004,0-0.008,0-0.01,0s-0.004,0-0.004,0
		c-0.004,0-0.004,0.001-0.006,0.001s-0.004-0.001-0.01-0.001c-0.021-0.003-0.043-0.003-0.064-0.003
		c-0.211,0.013-0.66-0.005-0.723-0.003c-0.887,0.027-1.473,0.029-2.352,0.117c-0.424,0.043-0.705,0.763-0.787,1.098
		c-0.541,2.22-1.777,4.955-3.094,6.692c-0.609,0.588-1.25,1.143-1.914,1.667c-0.141-2.185-0.797-4.583-1.898-6.469
		c-0.326-0.561-0.688-1.102-1.064-1.631c-1.02-1.432-2.146-2.498-3.355-3.818c-0.793-0.866-0.363-1.799-0.014-2.671
		c0.166-0.428,0.189-0.85,0.207-1.244c0.016-0.465,0.006-0.9-0.127-1.414c-0.66-2.577,0.289-1.531-0.078-4.622
		c-0.125-1.018-0.58-0.918-1.209-0.521c-0.123,0.08-1.387,0.765-1.635,0.983c-0.133,0.115-0.293,0.265-0.273,0.44
		c0.018,0.156,0.123,0.312,0.252,0.406c1.658,1.196,1.926,3.052,1.754,4.834c-0.164,1.717-1.43,3.119-3.012,3.709
		c-1.754,0.654-3.771,0.29-5.201-0.912c-1.23-1.033-2.072-2.765-1.555-4.372c0.473-1.458,2.096-2.473,3.506-2.871
		c0.602-0.17,1.219-0.31,1.846-0.363c0.229-0.02,0.689-0.045,1.049-0.059c0.09,0.007,0.178,0.007,0.268,0.016
		c-0.021-0.005-0.041-0.011-0.062-0.021c0.053-0.001,0.102-0.003,0.141-0.003c0.367,0,0.25-0.317,0.039-0.44
		c-0.514-0.295-0.807-0.229-1.164-0.219c-0.365,0.013-0.727,0.034-1.094,0.061c-0.402,0.031-0.828,0.123-1.188-0.119
		c-0.477-0.323-0.771-0.854-1.156-1.264c-0.355-0.379-0.715,0.148-0.939,0.44c-0.557,0.715-0.527,1.604-1.086,2.341
		c-1.791,2.367-2.457,4.984-0.172,7.096c0.775,0.716,1.668,1.29,2.676,1.593c0.316,0.096,0.68,0.183,1.004,0.245
		c0.484,0.093,0.953,0.184,1.443,0.245c0.541,0.068,1.014,0.131,1.498,0.292c2.281,0.761,3.699,2.917,4.244,5.193
		c0.18,0.739,0.445,1.51,0.477,2.267c0.055,1.348,0.088,2.799-0.289,4.108c-0.229,0.802-0.578,1.591-1.125,2.23
		c-0.285,0.334-0.609,0.617-0.996,0.826c-0.07,0.037-0.164,0.086-0.266,0.137c-1.914,0.564-3.922,0.908-5.992,1.002
		c-0.016-0.286-0.027-0.575-0.043-0.864c-0.111-2.132,0.295-4.272,0.367-6.4c0.068-1.999,0.08-4,0.201-5.997
		c0.002-0.037,0.072-0.874,0.055-0.876c0.533,0.316,0.34,3,0.369,4.14c0.039,1.286-0.057,2.26,0.018,3.547
		c0.059,0.969,0.021,1.938,0.1,2.904c0.045,0.508,0.082,1.092,0.242,1.579c0.113,0.331,0.688,1.069,0.941,0.372
		c0.096-0.261,0.135-0.566,0.141-0.885c0.018-0.654-0.102-1.372-0.141-1.927c-0.133-1.792-0.244-3.628-0.244-5.428
		c0-1.169-0.203-2.304-0.152-3.472c0.039-0.927,0.355-2.155-0.955-2.25c-1.098-0.078-1.418,0.689-1.438,1.636
		c-0.047,2.286-0.223,4.565-0.391,6.845c-0.104,1.435-0.221,2.878-0.426,4.302c-0.037,0.263-0.297,2.765-0.52,2.785
		c-0.031,0-0.064-0.001-0.098-0.002c-0.352-0.012-0.705-0.029-1.053-0.053c-0.08-0.005-0.164-0.012-0.242-0.019
		c-0.32-0.025-0.635-0.057-0.949-0.095c-0.131-0.015-0.264-0.032-0.395-0.05c-0.26-0.034-0.521-0.073-0.783-0.116
		c-0.178-0.031-0.357-0.062-0.535-0.097c-0.221-0.04-0.439-0.083-0.66-0.131c-0.08-0.017-0.158-0.037-0.238-0.056
		c-0.129-0.351-0.246-0.703-0.355-1.059c-0.293-0.963-0.459-1.919-0.506-2.925c-0.057-1.236-0.086-2.475-0.146-3.713
		c-0.133-2.806-0.172-5.616-0.396-8.417c-0.121-1.492-0.432-2.941-0.473-4.438c-0.029-1-0.383-3.222-1.953-2.181
		c-1.127,0.746-0.701,2.787-0.684,3.908c0.057,4.176,0.125,8.387,0.021,12.561c-0.023,1.006-0.287,2.029-0.148,3.039
		c0.145,1.024,1.248,1.017,1.207,0.087c-0.053-1.227,0.094-2.086,0.061-3.067c-0.059-1.659,0.051-3.324,0-4.986
		c-0.084-2.797-0.211-6.46-0.064-9.632c1.152-0.216,0.848,5.451,0.873,6.544c0.037,1.787-0.021,3.576-0.043,5.363
		c-0.01,1.072-0.008,2.161,0.043,3.239c0.045,1.038,0.191,4.334,0.268,5.044c-0.637-0.21-1.266-0.438-1.879-0.695
		c-0.07-0.03-0.139-0.059-0.209-0.088c-0.713-0.307-1.408-0.643-2.088-1.011c-0.025-0.014-0.053-0.028-0.078-0.043
		c-0.016-0.009-0.029-0.016-0.043-0.024c-0.934-0.609-1.822-1.275-2.668-1.996c-0.186-0.224-0.355-0.459-0.496-0.714
		c-0.291-0.535-0.502-1.108-0.697-1.684c-0.324-0.958-0.574-1.929-0.732-2.928c-0.088-0.546-0.145-1.099-0.164-1.653
		c-0.094-2.467,0.369-4.938,1.049-7.311c0.359-1.257,0.967-2.97,2.037-3.832c0.666-0.537,1.236-0.571,2.035-0.617
		c1.227-0.067,2.328-0.126,3.482-0.596c2.051-0.83,3.373-2.201,4.066-3.402c0.215-0.374,0.441-0.888,0.641-1.304l0.02-0.008
		c0.295-0.605,0.719-0.046,1.17-0.869c0.541-0.984-0.154-3.078-0.977-4.208c-1.238-1.704-1.832-2.464-4.174-2.591
		c-1.379-0.074-3.525-0.257-4.66,0.376c-1.104,0.615,1.098,0.665,1.916,0.63c1.619-0.066,3.035,0.629,4.137,1.823
		c1.205,1.305,1.566,3.055,1.125,4.568c-1.02,3.188-5.018,5.708-8.221,3.803c-1.111-0.662-1.221-1.048-0.688-2.194
		c0.633-1.358,0.523-2.855,0.52-4.311c-0.004-0.932,0.588-1.862,0.482-2.803c-0.201-1.757-1.852-0.825-2.715-0.248
		c-1.32,0.878-2.191,1.828-2.902,3.268c-0.57,1.148-0.947,2.355-1.293,3.584c-0.238,0.837,0.182,1.76,0.824,2.295
		c0.865,0.716,1.949,0.118,2.803,0.75c-0.781,0.868-1.758,1.64-2.459,2.586c-1.191,1.604-2.289,3.356-3.096,5.187
		c-0.174,0.398-0.326,0.803-0.459,1.217c-0.027,0.084-0.074,0.198-0.119,0.323c-0.994-2.745-1.539-5.703-1.539-8.789
		c0-14.248,11.59-25.841,25.84-25.841c1.4,0,2.775,0.116,4.115,0.332c2.838,0.684,5.492,1.841,7.873,3.386
		c-0.004,0.012-0.008,0.022-0.012,0.034c0.008,0.006,0.02,0.013,0.029,0.02c-0.043,0.453-0.066,0.911-0.076,1.373
		c-0.004,0.308-0.006,0.615-0.008,0.921c-1.812-1.626-4.078-2.832-6.42-3.487c-2.738-0.765-5.922-0.485-8.486,0.761
		c-0.447,0.217-0.824,0.399-1.217,0.708c-0.191,0.15-0.406,0.319-0.586,0.485c-0.178,0.165-0.373,0.391-0.541,0.57
		c-0.096,0.102-0.166,0.248-0.244,0.363c-0.061,0.095-0.139,0.306,0.033,0.336c0.143,0.028,0.271-0.059,0.379-0.136
		c0.145-0.107,0.295-0.242,0.445-0.346c0.326-0.225,0.662-0.446,1.004-0.649c0.34-0.201,0.676-0.406,1.023-0.596
		c0.344-0.19,0.701-0.359,1.062-0.509c0.361-0.151,0.729-0.285,1.109-0.383c0.045-0.013,0.092-0.024,0.139-0.035
		c2.293-0.563,4.889-0.113,7.016,0.845c1.211,0.547,2.283,1.33,3.336,2.13c-2.451-1.075-4.975-2.156-7.701-2.162
		c-2.652-0.004-5.314,1.036-7.242,2.864c-0.861,0.813-2.602,3.168-0.342,3.382c1.166,0.111,2.389-0.239,3.51-0.514
		c1.488-0.367,2.961-0.792,4.473-1.058c1.268-0.225,2.592-0.351,3.859-0.069c1.002,0.22,1.873,0.717,2.678,1.333
		c-1.725,0.104-3.35,0.839-4.773,1.805c-0.598,0.403-1.146,0.871-1.66,1.379c-0.408,0.409-0.816,0.818-1.146,1.295
		c-0.23,0.333-0.477,0.693-0.553,1.097c-0.021,0.105-0.051,0.374,0.045,0.456c0.121,0.098,0.32-0.024,0.393-0.117
		c0.555-0.712,1.043-1.272,1.604-1.818c0.598-0.577,1.293-1,1.949-1.51c0.363-0.285,0.74-0.551,1.131-0.793
		c0.67-0.41,1.363-0.738,2.121-0.946c0.23-0.062,0.529-0.053,0.832-0.043c-1.537,0.72-2.977,1.561-4.152,2.833
		c-1.316,1.424-2.346,3.238-2.834,5.12c-0.166,0.643-0.484,2.411,0.738,1.854c0.609-0.28,1.137-0.783,1.637-1.219
		c0.725-0.635,1.428-1.291,2.16-1.917c1.523-1.304,3.156-2.417,4.896-3.407c0.201-0.113,0.4-0.226,0.6-0.338
		c-0.701,1.028-1.146,2.133-1.408,3.354c-0.328,1.545-0.574,3.47-0.012,4.992c0.111,0.303,0.34,0.787,0.744,0.66
		c0.418-0.133,0.627-0.794,0.75-1.154c0.5-1.454,0.566-3.023,1.094-4.472c0.355-0.98,0.729-1.886,1.635-2.432
		c0.885-0.536,1.436,0.131,1.938-0.299c0.334-0.289,0.789-1.16,1.127-1.6c0.25-0.328,0.506-0.673,0.771-0.995
		c0.137-0.168,0.277-0.331,0.43-0.484c0.131-0.136,0.465-0.566,0.637-0.231c0.188,0.372-0.371,0.906-0.561,1.167
		c-0.867,1.179-1.131,1.73-1.619,2.604c-0.137,0.241-0.117,0.29-0.018,0.477c0.342,0.653,0.643,1.429,0.988,1.52
		c0.301,0.079,4.369-0.637,4.697-0.664l0,0l0,0c0.016,0,0.023,0,0.025,0c-0.002,0-0.002-0.002-0.002-0.003
		c0.004,0,0.01-0.002,0.012-0.002c-0.012-0.042-0.029-0.083-0.045-0.124c-0.002-0.007-0.004-0.015-0.004-0.021l-0.006-0.001
		c-0.629-1.721-1.432-3.359-2.383-4.895c-0.074-0.168-0.154-0.354-0.248-0.573c-0.002-0.002,0-0.004,0.002-0.005
		c3.203,4.303,5.102,9.632,5.102,15.396C169.057,44.547,159.295,55.377,146.676,57.076z M153.906,48.781
		c-0.246-1.359-0.68-2.817-1.211-4.097c-0.518-1.248-1.318-2.24-2.096-3.34c-0.311-0.439-0.684-0.844-1.043-1.244
		c-0.088-0.098-0.82-0.751-0.736-0.919c0.262-0.509,3.664,3.191,3.963,3.577c0.789,1.027,1.51,2.121,2.027,3.314
		c0.191,0.443,0.352,0.897,0.482,1.362c0.186,0.659,0.395,1.315,0.494,1.993c0.107,0.704,0.244,1.424,0.121,2.123
		c-0.008,0.052-0.012,0.096-0.014,0.138c-0.434,0.301-0.875,0.592-1.326,0.868c-0.006,0.004-0.016,0.007-0.021,0.013
		c-0.154,0.094-0.314,0.184-0.471,0.274C154.365,51.5,154.145,50.098,153.906,48.781z"/>
	<path fill="#231F20" d="M166.658,35.672c-0.131-0.073-0.264-0.145-0.396-0.211c-0.373-0.191-0.754-0.37-1.137-0.538
		c-0.205-0.088-0.414-0.175-0.621-0.256c-0.49-0.193-0.627,0.356-0.641,0.712c-0.025,0.699-0.082,1.322-0.219,2.015
		c-0.129,0.655-0.301,1.236-0.482,1.879c-0.094,0.337-0.291,0.688-0.115,1.047c0.123,0.248,0.699,0.204,0.912,0.198
		c0.547-0.013,0.951-0.037,1.48-0.045c0.086-0.001,0.18-0.006,0.275-0.014h0.666c0.305-0.784,0.57-1.587,0.803-2.404
		c0.016-0.054,0.035-0.107,0.051-0.162c0.029-0.107,0.057-0.213,0.082-0.322c0.119-0.45,0.23-0.904,0.326-1.363
		C167.646,36.161,166.887,35.797,166.658,35.672z"/>
	<path fill="#231F20" d="M166.596,22.567c-0.65,0.074-1.309,0.109-1.959,0.192c-0.186,0.023-0.367,0.051-0.553,0.081
		c-0.295,0.052-0.734,0.1-1.023,0.161c-0.26,0.056-0.855,0.216-0.703,0.578c0.096,0.229,0.184,0.474,0.244,0.671
		c0.188,0.622,0.443,1.084,0.619,1.684c0.199,0.675,0.32,1.391,0.506,2.208c0.035,0.159,0.168,0.42,0.311,0.507
		c0.424,0.255,1.164-0.297,1.545-0.457c0.436-0.182,0.875-0.351,1.309-0.534c0.121-0.051,0.242-0.1,0.365-0.145
		c0.113-0.04,0.219-0.088,0.328-0.135c0.053-0.022,0.107-0.046,0.158-0.066c0.02-0.007,0.234-0.064,0.232-0.078
		c-0.074-0.552-0.17-1.096-0.275-1.638c-0.033-0.186-0.062-0.355-0.094-0.487c-0.01-0.062-0.029-0.124-0.043-0.185
		c-0.037-0.168-0.082-0.334-0.125-0.501c-0.039-0.166-0.074-0.331-0.121-0.496c-0.121-0.465-0.25-0.926-0.398-1.381
		C166.914,22.534,166.758,22.549,166.596,22.567z"/>
</g>
<g>
	<path fill="#F3B444" d="M1.918,14.118H10.2v29.726H1.918V14.118z"/>
	<path fill="#F3B444" d="M27.125,44.354c-2.662,0-5.188-0.414-7.581-1.239c-2.392-0.826-4.51-2.066-6.348-3.718l4.586-5.49
		c2.972,2.376,6.186,3.566,9.639,3.566c1.105,0,1.946-0.177,2.526-0.53c0.581-0.352,0.871-0.854,0.871-1.504v-0.084
		c0-0.309-0.07-0.587-0.211-0.827c-0.144-0.241-0.404-0.474-0.786-0.699c-0.383-0.225-0.893-0.445-1.531-0.658
		c-0.636-0.209-1.461-0.431-2.482-0.66c-1.586-0.364-3.058-0.766-4.415-1.206c-1.359-0.437-2.542-1.001-3.546-1.696
		c-1.005-0.692-1.798-1.553-2.38-2.584c-0.58-1.03-0.87-2.31-0.87-3.835v-0.085c0-1.386,0.261-2.658,0.784-3.816
		c0.525-1.158,1.288-2.163,2.294-3.011c1.006-0.848,2.216-1.503,3.632-1.97c1.415-0.465,3.015-0.698,4.799-0.698
		c2.548,0,4.82,0.333,6.814,1.002c1.997,0.669,3.803,1.662,5.417,2.971l-4.12,5.834c-1.357-0.96-2.753-1.692-4.183-2.187
		c-1.432-0.494-2.81-0.742-4.143-0.742c-0.991,0-1.731,0.184-2.227,0.551c-0.496,0.367-0.744,0.818-0.744,1.357v0.083
		c0,0.342,0.076,0.637,0.234,0.892c0.155,0.254,0.424,0.488,0.807,0.698c0.381,0.214,0.904,0.426,1.571,0.637
		c0.664,0.211,1.507,0.43,2.527,0.657c1.7,0.368,3.234,0.798,4.606,1.292c1.374,0.494,2.542,1.096,3.503,1.804
		c0.964,0.706,1.699,1.562,2.21,2.564c0.509,1.004,0.763,2.198,0.763,3.583v0.084c0,1.526-0.29,2.882-0.871,4.069
		c-0.579,1.188-1.395,2.198-2.441,3.032c-1.048,0.833-2.307,1.47-3.78,1.909C30.578,44.134,28.938,44.354,27.125,44.354z"/>
	<path fill="#F3B444" d="M42.242,14.118h7.704L62.201,29.83V14.118h8.112v29.726h-7.235L50.354,27.535v16.309h-8.112V14.118z"/>
	<path fill="#F3B444" d="M75.323,14.118h7.705L95.283,29.83V14.118h8.11v29.726h-7.233L83.434,27.535v16.309h-8.111V14.118z"/>
</g>
<g>
	<path fill="#231F20" stroke="#231F20" stroke-width="0.2" stroke-miterlimit="10" d="M4.458,59.396v0.198H1.362v-0.198h0.254
		c0.3,0,0.517-0.085,0.651-0.261c0.084-0.114,0.126-0.388,0.126-0.821v-4.667c0-0.365-0.021-0.606-0.071-0.723
		c-0.035-0.089-0.106-0.165-0.217-0.228c-0.154-0.087-0.319-0.129-0.489-0.129H1.362v-0.196h3.095v0.196H4.194
		c-0.294,0-0.507,0.087-0.643,0.262c-0.09,0.113-0.135,0.385-0.135,0.817v4.667c0,0.369,0.024,0.607,0.07,0.727
		c0.037,0.086,0.109,0.163,0.224,0.227c0.153,0.086,0.312,0.128,0.484,0.128H4.458z"/>
	<path fill="#231F20" stroke="#231F20" stroke-width="0.2" stroke-miterlimit="10" d="M6.762,52.371h1.96l4.415,5.418V53.62
		c0-0.442-0.049-0.721-0.148-0.83c-0.132-0.149-0.339-0.224-0.625-0.224h-0.249v-0.196h2.513v0.196h-0.254
		c-0.305,0-0.523,0.092-0.649,0.276c-0.077,0.114-0.119,0.375-0.119,0.777v6.091h-0.19l-4.761-5.82v4.451
		c0,0.444,0.046,0.719,0.141,0.833c0.137,0.145,0.343,0.221,0.625,0.221h0.255v0.198H7.162v-0.198H7.41
		c0.311,0,0.529-0.089,0.655-0.276c0.08-0.111,0.119-0.373,0.119-0.777v-5.022c-0.21-0.247-0.368-0.407-0.477-0.485
		c-0.109-0.08-0.267-0.15-0.478-0.219c-0.103-0.033-0.258-0.049-0.467-0.049V52.371z"/>
	<path fill="#231F20" stroke="#231F20" stroke-width="0.2" stroke-miterlimit="10" d="M23.28,52.371l0.079,1.693h-0.203
		c-0.04-0.298-0.093-0.51-0.16-0.638c-0.11-0.209-0.256-0.358-0.438-0.456c-0.183-0.098-0.426-0.149-0.723-0.149h-1.018v5.521
		c0,0.444,0.049,0.719,0.143,0.833c0.135,0.145,0.346,0.221,0.625,0.221h0.251v0.198h-3.065v-0.198h0.257
		c0.305,0,0.52-0.089,0.651-0.276c0.076-0.111,0.116-0.373,0.116-0.777v-5.521h-0.868c-0.336,0-0.577,0.025-0.72,0.075
		c-0.186,0.069-0.343,0.197-0.475,0.39c-0.132,0.193-0.21,0.453-0.233,0.778h-0.204l0.085-1.693H23.28z"/>
	<path fill="#231F20" stroke="#231F20" stroke-width="0.2" stroke-miterlimit="10" d="M28.093,52.763v2.854h1.588
		c0.409,0,0.686-0.06,0.826-0.186c0.186-0.162,0.287-0.448,0.306-0.86h0.199v2.513h-0.199c-0.048-0.352-0.098-0.578-0.146-0.677
		c-0.063-0.123-0.168-0.222-0.315-0.294c-0.146-0.071-0.368-0.105-0.67-0.105h-1.588v2.378c0,0.322,0.013,0.516,0.041,0.587
		c0.029,0.067,0.079,0.124,0.151,0.167c0.071,0.04,0.205,0.059,0.404,0.059h1.225c0.407,0,0.706-0.028,0.891-0.083
		c0.182-0.059,0.362-0.169,0.533-0.339c0.222-0.22,0.444-0.549,0.675-0.994h0.212l-0.621,1.812h-5.567v-0.198h0.256
		c0.168,0,0.33-0.042,0.485-0.121c0.111-0.055,0.189-0.143,0.229-0.257c0.042-0.113,0.063-0.347,0.063-0.7v-4.691
		c0-0.457-0.044-0.74-0.139-0.846c-0.127-0.143-0.339-0.214-0.638-0.214h-0.256v-0.196h5.567l0.078,1.58h-0.206
		c-0.077-0.381-0.157-0.641-0.248-0.781c-0.092-0.142-0.224-0.251-0.403-0.327c-0.142-0.052-0.394-0.08-0.75-0.08H28.093z"/>
	<path fill="#231F20" stroke="#231F20" stroke-width="0.2" stroke-miterlimit="10" d="M42.032,59.594h-1.929l-2.446-3.379
		c-0.18,0.008-0.326,0.012-0.443,0.012c-0.043,0-0.094,0-0.147-0.002c-0.056-0.003-0.109-0.005-0.164-0.01v2.099
		c0,0.456,0.048,0.739,0.146,0.847c0.136,0.158,0.338,0.235,0.608,0.235h0.283v0.198h-3.096v-0.198h0.272
		c0.305,0,0.522-0.099,0.656-0.298c0.076-0.109,0.112-0.371,0.112-0.784v-4.667c0-0.453-0.051-0.733-0.15-0.845
		c-0.138-0.158-0.344-0.235-0.618-0.235h-0.272v-0.196h2.633c0.766,0,1.333,0.055,1.697,0.167c0.362,0.111,0.674,0.318,0.926,0.618
		c0.254,0.299,0.381,0.659,0.381,1.073c0,0.444-0.144,0.827-0.435,1.155c-0.288,0.327-0.735,0.559-1.347,0.692l1.494,2.071
		c0.339,0.477,0.634,0.793,0.878,0.95c0.247,0.157,0.564,0.256,0.96,0.298V59.594z M36.903,55.88c0.065,0,0.125,0,0.176,0.002
		c0.048,0.003,0.089,0.005,0.123,0.005c0.686,0,1.206-0.151,1.555-0.45c0.352-0.298,0.524-0.679,0.524-1.142
		c0-0.45-0.141-0.815-0.421-1.097c-0.284-0.283-0.657-0.426-1.123-0.426c-0.206,0-0.483,0.034-0.834,0.102V55.88z"/>
	<path fill="#231F20" stroke="#231F20" stroke-width="0.2" stroke-miterlimit="10" d="M43.973,52.371h1.963l4.414,5.418V53.62
		c0-0.442-0.049-0.721-0.146-0.83c-0.133-0.149-0.34-0.224-0.625-0.224h-0.249v-0.196h2.515v0.196h-0.257
		c-0.305,0-0.522,0.092-0.647,0.276c-0.079,0.114-0.118,0.375-0.118,0.777v6.091h-0.195l-4.761-5.82v4.451
		c0,0.444,0.048,0.719,0.144,0.833c0.137,0.145,0.343,0.221,0.624,0.221h0.255v0.198h-2.513v-0.198h0.25
		c0.309,0,0.527-0.089,0.655-0.276c0.079-0.111,0.12-0.373,0.12-0.777v-5.022c-0.211-0.247-0.369-0.407-0.479-0.485
		c-0.109-0.08-0.266-0.15-0.477-0.219c-0.1-0.033-0.258-0.049-0.469-0.049V52.371z"/>
	<path fill="#231F20" stroke="#231F20" stroke-width="0.2" stroke-miterlimit="10" d="M59.172,57.174h-2.797l-0.49,1.14
		c-0.123,0.281-0.184,0.491-0.184,0.632c0,0.107,0.052,0.204,0.158,0.288c0.106,0.083,0.331,0.138,0.679,0.162v0.198h-2.274v-0.198
		c0.303-0.051,0.495-0.121,0.585-0.208c0.183-0.17,0.382-0.517,0.603-1.041l2.543-5.943h0.186l2.512,6.008
		c0.205,0.485,0.387,0.798,0.551,0.941c0.165,0.145,0.397,0.225,0.69,0.242v0.198h-2.849v-0.198
		c0.287-0.014,0.482-0.061,0.582-0.145c0.105-0.081,0.157-0.181,0.157-0.3c0-0.151-0.073-0.399-0.217-0.738L59.172,57.174z
		 M59.021,56.782l-1.226-2.923l-1.258,2.923H59.021z"/>
	<path fill="#231F20" stroke="#231F20" stroke-width="0.2" stroke-miterlimit="10" d="M69.341,52.371l0.083,1.693h-0.202
		c-0.041-0.298-0.093-0.51-0.161-0.638c-0.109-0.209-0.257-0.358-0.438-0.456c-0.183-0.098-0.427-0.149-0.724-0.149h-1.017v5.521
		c0,0.444,0.044,0.719,0.141,0.833c0.135,0.145,0.343,0.221,0.625,0.221H67.9v0.198h-3.064v-0.198h0.257
		c0.305,0,0.52-0.089,0.651-0.276c0.075-0.111,0.113-0.373,0.113-0.777v-5.521h-0.865c-0.341,0-0.581,0.025-0.723,0.075
		c-0.182,0.069-0.34,0.197-0.472,0.39c-0.132,0.193-0.208,0.453-0.236,0.778H63.36l0.085-1.693H69.341z"/>
	<path fill="#231F20" stroke="#231F20" stroke-width="0.2" stroke-miterlimit="10" d="M75.243,59.396v0.198h-3.096v-0.198h0.259
		c0.295,0,0.514-0.085,0.648-0.261c0.084-0.114,0.128-0.388,0.128-0.821v-4.667c0-0.365-0.024-0.606-0.069-0.723
		c-0.035-0.089-0.108-0.165-0.22-0.228c-0.155-0.087-0.319-0.129-0.487-0.129h-0.259v-0.196h3.096v0.196h-0.26
		c-0.295,0-0.51,0.087-0.646,0.262c-0.089,0.113-0.13,0.385-0.13,0.817v4.667c0,0.369,0.022,0.607,0.068,0.727
		c0.035,0.086,0.109,0.163,0.224,0.227c0.152,0.086,0.313,0.128,0.485,0.128H75.243z"/>
	<path fill="#231F20" stroke="#231F20" stroke-width="0.2" stroke-miterlimit="10" d="M81.682,52.204
		c0.938,0,1.749,0.358,2.438,1.069c0.687,0.709,1.029,1.602,1.029,2.667c0,1.095-0.346,2.005-1.037,2.73
		c-0.691,0.725-1.53,1.086-2.515,1.086c-0.996,0-1.83-0.353-2.505-1.059c-0.678-0.707-1.015-1.621-1.015-2.742
		c0-1.148,0.389-2.084,1.17-2.811C79.922,52.518,80.738,52.204,81.682,52.204z M81.582,52.59c-0.646,0-1.167,0.244-1.558,0.722
		c-0.485,0.596-0.728,1.472-0.728,2.621c0,1.179,0.252,2.085,0.754,2.723c0.388,0.483,0.899,0.723,1.538,0.723
		c0.673,0,1.234-0.264,1.676-0.792c0.444-0.528,0.665-1.364,0.665-2.504c0-1.236-0.243-2.157-0.728-2.764
		C82.807,52.834,82.271,52.59,81.582,52.59z"/>
	<path fill="#231F20" stroke="#231F20" stroke-width="0.2" stroke-miterlimit="10" d="M87.609,52.371h1.96l4.419,5.418V53.62
		c0-0.442-0.051-0.721-0.149-0.83c-0.135-0.149-0.341-0.224-0.625-0.224h-0.251v-0.196h2.515v0.196h-0.256
		c-0.306,0-0.524,0.092-0.651,0.276c-0.077,0.114-0.118,0.375-0.118,0.777v6.091h-0.189l-4.765-5.82v4.451
		c0,0.444,0.049,0.719,0.146,0.833c0.135,0.145,0.343,0.221,0.622,0.221h0.258v0.198H88.01v-0.198h0.248
		c0.31,0,0.53-0.089,0.657-0.276c0.079-0.111,0.116-0.373,0.116-0.777v-5.022c-0.207-0.247-0.367-0.407-0.477-0.485
		c-0.109-0.08-0.267-0.15-0.476-0.219c-0.104-0.033-0.259-0.049-0.469-0.049V52.371z"/>
	<path fill="#231F20" stroke="#231F20" stroke-width="0.2" stroke-miterlimit="10" d="M102.805,57.174h-2.795l-0.489,1.14
		c-0.12,0.281-0.183,0.491-0.183,0.632c0,0.107,0.055,0.204,0.157,0.288c0.106,0.083,0.334,0.138,0.681,0.162v0.198h-2.277v-0.198
		c0.303-0.051,0.5-0.121,0.586-0.208c0.183-0.17,0.383-0.517,0.601-1.041l2.541-5.943h0.186l2.518,6.008
		c0.205,0.485,0.387,0.798,0.553,0.941c0.164,0.145,0.393,0.225,0.689,0.242v0.198h-2.848v-0.198
		c0.285-0.014,0.477-0.061,0.578-0.145c0.104-0.081,0.152-0.181,0.152-0.3c0-0.151-0.068-0.399-0.211-0.738L102.805,57.174z
		 M102.656,56.782l-1.225-2.923l-1.256,2.923H102.656z"/>
	<path fill="#231F20" stroke="#231F20" stroke-width="0.2" stroke-miterlimit="10" d="M114.131,57.595l0.176,0.037l-0.619,1.961
		h-5.594v-0.198h0.271c0.305,0,0.523-0.099,0.656-0.298c0.074-0.112,0.113-0.375,0.113-0.787v-4.664c0-0.449-0.053-0.73-0.15-0.845
		c-0.143-0.158-0.348-0.235-0.619-0.235h-0.271v-0.196h3.271v0.196c-0.385-0.004-0.654,0.033-0.807,0.106
		c-0.154,0.074-0.262,0.17-0.318,0.284c-0.055,0.113-0.084,0.382-0.084,0.812v4.541c0,0.292,0.029,0.497,0.084,0.603
		c0.043,0.079,0.109,0.132,0.199,0.168c0.088,0.036,0.365,0.053,0.83,0.053h0.525c0.555,0,0.945-0.039,1.168-0.122
		c0.227-0.081,0.428-0.224,0.613-0.434C113.762,58.371,113.943,58.042,114.131,57.595z"/>
	<path fill="#231F20" stroke="#231F20" stroke-width="0.2" stroke-miterlimit="10" d="M6.094,65.942v2.499H5.896
		c-0.065-0.478-0.181-0.862-0.347-1.146c-0.164-0.283-0.398-0.508-0.705-0.675c-0.304-0.168-0.622-0.252-0.949-0.252
		c-0.368,0-0.672,0.115-0.914,0.339c-0.243,0.226-0.363,0.483-0.363,0.77c0,0.22,0.076,0.418,0.23,0.601
		c0.22,0.27,0.743,0.623,1.573,1.065c0.672,0.361,1.133,0.641,1.382,0.834c0.245,0.192,0.433,0.422,0.568,0.686
		c0.134,0.263,0.2,0.539,0.2,0.826c0,0.546-0.211,1.018-0.637,1.413c-0.422,0.395-0.972,0.594-1.638,0.594
		c-0.209,0-0.407-0.017-0.592-0.047c-0.108-0.019-0.337-0.084-0.685-0.197c-0.344-0.108-0.565-0.166-0.654-0.166
		c-0.093,0-0.161,0.024-0.212,0.077c-0.051,0.057-0.09,0.167-0.116,0.332H1.84v-2.475h0.198c0.092,0.516,0.215,0.908,0.373,1.162
		c0.157,0.258,0.395,0.472,0.718,0.644c0.319,0.167,0.673,0.253,1.058,0.253c0.441,0,0.793-0.115,1.048-0.352
		c0.26-0.233,0.387-0.509,0.387-0.832c0-0.175-0.048-0.355-0.146-0.538c-0.096-0.179-0.251-0.347-0.456-0.504
		c-0.138-0.108-0.515-0.334-1.132-0.682c-0.622-0.344-1.061-0.62-1.32-0.826c-0.261-0.207-0.458-0.433-0.592-0.682
		c-0.138-0.247-0.205-0.524-0.205-0.822c0-0.517,0.2-0.963,0.597-1.338c0.397-0.375,0.904-0.563,1.521-0.563
		c0.38,0,0.789,0.093,1.22,0.282c0.197,0.086,0.338,0.135,0.421,0.135c0.091,0,0.168-0.029,0.224-0.085
		c0.06-0.054,0.106-0.167,0.143-0.332H6.094z"/>
	<path fill="#231F20" stroke="#231F20" stroke-width="0.2" stroke-miterlimit="10" d="M11.575,69.948v2.105
		c0,0.453,0.052,0.737,0.15,0.846c0.138,0.157,0.34,0.236,0.614,0.236h0.277v0.196H9.521v-0.196h0.271c0.306,0,0.523-0.1,0.655-0.3
		c0.073-0.107,0.106-0.369,0.106-0.782v-4.669c0-0.452-0.046-0.734-0.143-0.846c-0.138-0.157-0.347-0.234-0.619-0.234H9.521v-0.198
		h2.646c0.649,0,1.158,0.068,1.529,0.202c0.373,0.134,0.687,0.36,0.945,0.673c0.252,0.317,0.38,0.692,0.38,1.125
		c0,0.59-0.193,1.069-0.583,1.437c-0.386,0.372-0.937,0.558-1.648,0.558c-0.173,0-0.362-0.014-0.564-0.041
		C12.024,70.038,11.809,69.997,11.575,69.948z M11.575,69.646c0.19,0.035,0.358,0.059,0.503,0.077c0.145,0.018,0.27,0.03,0.373,0.03
		c0.37,0,0.686-0.145,0.955-0.43c0.269-0.286,0.404-0.655,0.404-1.112c0-0.311-0.065-0.602-0.194-0.871
		c-0.126-0.267-0.307-0.469-0.544-0.602c-0.233-0.13-0.502-0.2-0.799-0.2c-0.178,0-0.409,0.034-0.698,0.102V69.646z"/>
	<path fill="#231F20" stroke="#231F20" stroke-width="0.2" stroke-miterlimit="10" d="M21.58,70.913h-2.795l-0.492,1.141
		c-0.123,0.28-0.182,0.487-0.182,0.629c0,0.107,0.052,0.207,0.158,0.291c0.106,0.081,0.332,0.136,0.678,0.162v0.196h-2.273v-0.196
		c0.3-0.056,0.497-0.125,0.584-0.21c0.183-0.169,0.382-0.514,0.603-1.038l2.541-5.945h0.187l2.516,6.01
		c0.201,0.481,0.386,0.794,0.55,0.939c0.166,0.146,0.395,0.223,0.69,0.244v0.196h-2.85v-0.196c0.289-0.016,0.482-0.063,0.583-0.147
		c0.103-0.081,0.154-0.178,0.154-0.296c0-0.155-0.073-0.403-0.214-0.74L21.58,70.913z M21.431,70.518l-1.227-2.919l-1.258,2.919
		H21.431z"/>
	<path fill="#231F20" stroke="#231F20" stroke-width="0.2" stroke-miterlimit="10" d="M30.848,66.106h2.518v0.198h-0.138
		c-0.094,0-0.227,0.041-0.404,0.124c-0.178,0.081-0.34,0.197-0.484,0.349c-0.147,0.155-0.327,0.403-0.539,0.747l-1.741,2.743v1.812
		c0,0.444,0.048,0.722,0.146,0.829c0.137,0.149,0.35,0.227,0.643,0.227h0.233v0.196h-3.067v-0.196h0.255
		c0.305,0,0.522-0.096,0.648-0.279c0.08-0.114,0.118-0.372,0.118-0.777v-1.708l-1.98-3.027c-0.237-0.357-0.396-0.576-0.476-0.667
		c-0.084-0.09-0.257-0.196-0.52-0.319c-0.075-0.038-0.174-0.055-0.312-0.055v-0.198h3.092v0.198h-0.16
		c-0.17,0-0.319,0.04-0.461,0.117c-0.141,0.079-0.208,0.197-0.208,0.351c0,0.128,0.106,0.358,0.324,0.693l1.508,2.328l1.416-2.227
		c0.211-0.334,0.319-0.581,0.319-0.746c0-0.1-0.023-0.188-0.074-0.264c-0.053-0.08-0.126-0.141-0.225-0.186
		c-0.094-0.044-0.237-0.066-0.428-0.066V66.106z"/>
	<path fill="#231F20" stroke="#231F20" stroke-width="0.2" stroke-miterlimit="10" d="M38.766,65.755l-2.616,7.724h-0.423
		l2.611-7.724H38.766z"/>
	<path fill="#231F20" stroke="#231F20" stroke-width="0.2" stroke-miterlimit="10" d="M40.776,66.106h1.961l4.418,5.418v-4.166
		c0-0.442-0.049-0.722-0.149-0.835c-0.134-0.146-0.341-0.22-0.624-0.22h-0.251v-0.198h2.517v0.198h-0.256
		c-0.307,0-0.522,0.091-0.65,0.276c-0.08,0.116-0.117,0.375-0.117,0.778v6.09h-0.193l-4.763-5.819v4.45
		c0,0.444,0.05,0.722,0.146,0.829c0.133,0.149,0.342,0.227,0.625,0.227h0.255v0.196h-2.516v-0.196h0.249
		c0.311,0,0.529-0.096,0.658-0.279c0.077-0.114,0.117-0.372,0.117-0.777v-5.024c-0.21-0.244-0.37-0.405-0.476-0.483
		c-0.109-0.079-0.269-0.153-0.48-0.22c-0.101-0.031-0.26-0.048-0.469-0.048V66.106z"/>
	<path fill="#231F20" stroke="#231F20" stroke-width="0.2" stroke-miterlimit="10" d="M53.262,66.501v2.855h1.587
		c0.414,0,0.689-0.062,0.825-0.185c0.185-0.163,0.29-0.451,0.312-0.864h0.195v2.517h-0.195c-0.051-0.354-0.101-0.58-0.149-0.679
		c-0.066-0.124-0.167-0.222-0.314-0.292c-0.148-0.072-0.371-0.105-0.674-0.105h-1.587v2.381c0,0.319,0.017,0.513,0.043,0.583
		c0.028,0.071,0.079,0.124,0.15,0.164c0.071,0.041,0.204,0.062,0.403,0.062h1.225c0.408,0,0.705-0.029,0.891-0.087
		c0.184-0.056,0.359-0.167,0.532-0.333c0.221-0.22,0.444-0.552,0.677-0.996h0.212l-0.623,1.81h-5.567v-0.196h0.255
		c0.173,0,0.333-0.042,0.485-0.125c0.115-0.055,0.191-0.14,0.232-0.254c0.041-0.113,0.062-0.345,0.062-0.7v-4.691
		c0-0.458-0.045-0.74-0.138-0.846c-0.128-0.146-0.341-0.215-0.641-0.215h-0.255v-0.198h5.567l0.081,1.583h-0.208
		c-0.074-0.377-0.156-0.64-0.249-0.781c-0.089-0.142-0.224-0.251-0.402-0.327c-0.143-0.057-0.392-0.08-0.752-0.08H53.262z"/>
	<path fill="#231F20" stroke="#231F20" stroke-width="0.2" stroke-miterlimit="10" d="M65.032,66.304v-0.198h2.559v0.198h-0.273
		c-0.283,0-0.504,0.121-0.655,0.357c-0.076,0.109-0.109,0.365-0.109,0.769v2.928c0,0.727-0.071,1.288-0.215,1.686
		c-0.147,0.4-0.428,0.742-0.848,1.029c-0.422,0.285-0.994,0.429-1.717,0.429c-0.791,0-1.389-0.137-1.798-0.408
		c-0.409-0.275-0.698-0.645-0.866-1.104c-0.114-0.317-0.171-0.911-0.171-1.78v-2.826c0-0.441-0.063-0.732-0.183-0.872
		c-0.124-0.138-0.322-0.208-0.598-0.208h-0.27v-0.198h3.119v0.198h-0.274c-0.298,0-0.511,0.095-0.639,0.282
		c-0.09,0.129-0.135,0.395-0.135,0.798v3.151c0,0.28,0.028,0.602,0.078,0.962c0.053,0.364,0.144,0.646,0.281,0.849
		c0.134,0.2,0.327,0.37,0.583,0.5c0.253,0.132,0.564,0.197,0.935,0.197c0.472,0,0.894-0.104,1.269-0.308
		c0.375-0.206,0.627-0.469,0.764-0.792c0.136-0.323,0.206-0.867,0.206-1.635v-2.926c0-0.448-0.051-0.729-0.149-0.846
		c-0.14-0.157-0.347-0.234-0.619-0.234H65.032z"/>
	<path fill="#231F20" stroke="#231F20" stroke-width="0.2" stroke-miterlimit="10" d="M76.203,66.106l0.079,1.697h-0.201
		c-0.039-0.299-0.09-0.513-0.16-0.641c-0.109-0.207-0.257-0.357-0.44-0.455c-0.181-0.098-0.424-0.148-0.721-0.148H73.74v5.521
		c0,0.444,0.049,0.722,0.145,0.829c0.137,0.149,0.343,0.227,0.621,0.227h0.253v0.196h-3.064v-0.196h0.256
		c0.308,0,0.522-0.096,0.651-0.279c0.077-0.114,0.117-0.372,0.117-0.777v-5.521h-0.865c-0.342,0-0.581,0.026-0.723,0.075
		c-0.185,0.068-0.342,0.199-0.474,0.39c-0.131,0.191-0.209,0.453-0.234,0.779h-0.205l0.087-1.697H76.203z"/>
	<path fill="#231F20" stroke="#231F20" stroke-width="0.2" stroke-miterlimit="10" d="M81.016,66.501v2.855h1.588
		c0.412,0,0.688-0.062,0.825-0.185c0.185-0.163,0.29-0.451,0.309-0.864h0.197v2.517h-0.197c-0.051-0.354-0.097-0.58-0.149-0.679
		c-0.062-0.124-0.168-0.222-0.313-0.292c-0.146-0.072-0.367-0.105-0.671-0.105h-1.588v2.381c0,0.319,0.015,0.513,0.043,0.583
		c0.029,0.071,0.078,0.124,0.151,0.164c0.069,0.041,0.205,0.062,0.401,0.062h1.227c0.408,0,0.705-0.029,0.89-0.087
		c0.186-0.056,0.362-0.167,0.53-0.333c0.222-0.22,0.448-0.552,0.678-0.996h0.213l-0.624,1.81h-5.563v-0.196h0.254
		c0.17,0,0.333-0.042,0.483-0.125c0.116-0.055,0.193-0.14,0.232-0.254c0.044-0.113,0.062-0.345,0.062-0.7v-4.691
		c0-0.458-0.046-0.74-0.139-0.846c-0.127-0.146-0.339-0.215-0.639-0.215h-0.254v-0.198h5.563l0.083,1.583h-0.21
		c-0.073-0.377-0.154-0.64-0.249-0.781c-0.088-0.142-0.224-0.251-0.398-0.327c-0.143-0.057-0.393-0.08-0.752-0.08H81.016z"/>
	<path fill="#231F20" stroke="#231F20" stroke-width="0.2" stroke-miterlimit="10" d="M94.956,73.331h-1.929l-2.445-3.378
		c-0.18,0.007-0.33,0.01-0.442,0.01c-0.045,0-0.094,0-0.149,0c-0.051-0.002-0.106-0.003-0.164-0.01v2.101
		c0,0.453,0.049,0.737,0.149,0.846c0.134,0.157,0.339,0.236,0.606,0.236h0.287v0.196h-3.101v-0.196h0.276
		c0.304,0,0.52-0.1,0.653-0.3c0.074-0.107,0.113-0.369,0.113-0.782v-4.669c0-0.452-0.05-0.734-0.15-0.846
		c-0.137-0.157-0.345-0.234-0.616-0.234h-0.276v-0.198h2.634c0.767,0,1.332,0.059,1.697,0.168c0.362,0.112,0.672,0.318,0.928,0.619
		c0.251,0.302,0.378,0.658,0.378,1.073c0,0.444-0.143,0.83-0.435,1.157c-0.29,0.326-0.739,0.559-1.343,0.693l1.489,2.071
		c0.34,0.476,0.637,0.792,0.88,0.947c0.245,0.157,0.565,0.258,0.959,0.3V73.331z M89.826,69.617c0.068,0,0.126,0.001,0.173,0.002
		c0.053,0.002,0.095,0.006,0.124,0.006c0.689,0,1.21-0.15,1.557-0.45c0.353-0.297,0.525-0.677,0.525-1.141
		c0-0.452-0.139-0.816-0.42-1.1c-0.284-0.281-0.657-0.424-1.123-0.424c-0.206,0-0.484,0.036-0.836,0.104V69.617z"/>
	<path fill="#231F20" stroke="#231F20" stroke-width="0.2" stroke-miterlimit="10" d="M101.809,66.106h1.961l4.414,5.418v-4.166
		c0-0.442-0.049-0.722-0.146-0.835c-0.133-0.146-0.344-0.22-0.623-0.22h-0.252v-0.198h2.514v0.198h-0.256
		c-0.305,0-0.523,0.091-0.65,0.276c-0.076,0.116-0.117,0.375-0.117,0.778v6.09h-0.191l-4.762-5.819v4.45
		c0,0.444,0.045,0.722,0.143,0.829c0.135,0.149,0.344,0.227,0.623,0.227h0.256v0.196h-2.516v-0.196h0.254
		c0.309,0,0.523-0.096,0.652-0.279c0.08-0.114,0.117-0.372,0.117-0.777v-5.024c-0.209-0.244-0.367-0.405-0.477-0.483
		c-0.107-0.079-0.266-0.153-0.475-0.22c-0.105-0.031-0.264-0.048-0.469-0.048V66.106z"/>
	<path fill="#231F20" stroke="#231F20" stroke-width="0.2" stroke-miterlimit="10" d="M114.293,66.501v2.855h1.584
		c0.416,0,0.689-0.062,0.83-0.185c0.184-0.163,0.285-0.451,0.309-0.864h0.193v2.517h-0.193c-0.053-0.354-0.1-0.58-0.15-0.679
		c-0.064-0.124-0.168-0.222-0.316-0.292c-0.141-0.072-0.367-0.105-0.672-0.105h-1.584v2.381c0,0.319,0.014,0.513,0.043,0.583
		c0.027,0.071,0.076,0.124,0.148,0.164c0.072,0.041,0.205,0.062,0.404,0.062h1.227c0.408,0,0.705-0.029,0.885-0.087
		c0.191-0.056,0.369-0.167,0.535-0.333c0.219-0.22,0.449-0.552,0.678-0.996h0.213l-0.625,1.81h-5.564v-0.196h0.256
		c0.168,0,0.332-0.042,0.484-0.125c0.111-0.055,0.191-0.14,0.232-0.254c0.039-0.113,0.061-0.345,0.061-0.7v-4.691
		c0-0.458-0.047-0.74-0.141-0.846c-0.129-0.146-0.342-0.215-0.637-0.215h-0.256v-0.198h5.564l0.082,1.583h-0.207
		c-0.074-0.377-0.16-0.64-0.248-0.781c-0.09-0.142-0.227-0.251-0.402-0.327c-0.143-0.057-0.395-0.08-0.752-0.08H114.293z"/>
	<path fill="#231F20" stroke="#231F20" stroke-width="0.2" stroke-miterlimit="10" d="M127.174,66.106l0.078,1.697h-0.203
		c-0.039-0.299-0.092-0.513-0.158-0.641c-0.111-0.207-0.258-0.357-0.438-0.455c-0.188-0.098-0.428-0.148-0.723-0.148h-1.021v5.521
		c0,0.444,0.051,0.722,0.146,0.829c0.135,0.149,0.344,0.227,0.619,0.227h0.256v0.196h-3.066v-0.196h0.256
		c0.307,0,0.523-0.096,0.65-0.279c0.078-0.114,0.115-0.372,0.115-0.777v-5.521h-0.865c-0.338,0-0.578,0.026-0.721,0.075
		c-0.184,0.068-0.34,0.199-0.475,0.39c-0.129,0.191-0.207,0.453-0.232,0.779h-0.203l0.084-1.697H127.174z"/>
	<path fill="#231F20" stroke="#231F20" stroke-width="0.2" stroke-miterlimit="10" d="M139.918,66.106v0.198
		c-0.189,0-0.338,0.034-0.461,0.102c-0.115,0.067-0.229,0.193-0.332,0.379c-0.072,0.125-0.188,0.42-0.336,0.888l-2.016,5.822h-0.211
		l-1.648-4.616l-1.635,4.616h-0.191l-2.148-5.998c-0.156-0.448-0.26-0.712-0.301-0.792c-0.072-0.136-0.168-0.236-0.291-0.303
		c-0.123-0.065-0.289-0.099-0.496-0.099v-0.198h2.672v0.198h-0.129c-0.188,0-0.334,0.042-0.432,0.128
		c-0.1,0.087-0.146,0.188-0.146,0.308c0,0.125,0.074,0.412,0.23,0.858l1.426,4.054l1.195-3.446l-0.213-0.607l-0.168-0.485
		c-0.074-0.177-0.158-0.334-0.25-0.469c-0.045-0.065-0.104-0.121-0.17-0.17c-0.09-0.061-0.178-0.106-0.27-0.137
		c-0.066-0.021-0.172-0.032-0.318-0.032v-0.198h2.812v0.198h-0.193c-0.197,0-0.342,0.042-0.436,0.128
		c-0.092,0.087-0.137,0.2-0.137,0.345c0,0.183,0.078,0.499,0.236,0.95l1.393,3.924l1.369-3.979c0.158-0.441,0.236-0.746,0.236-0.917
		c0-0.081-0.027-0.158-0.078-0.233c-0.053-0.066-0.117-0.117-0.193-0.146c-0.137-0.049-0.314-0.074-0.531-0.074v-0.198H139.918z"/>
	<path fill="#231F20" stroke="#231F20" stroke-width="0.2" stroke-miterlimit="10" d="M146.176,65.942
		c0.936,0,1.748,0.358,2.438,1.069c0.688,0.711,1.031,1.6,1.031,2.666c0,1.097-0.35,2.009-1.039,2.734
		c-0.691,0.724-1.533,1.084-2.516,1.084c-0.998,0-1.832-0.352-2.506-1.062c-0.68-0.706-1.016-1.62-1.016-2.742
		c0-1.147,0.389-2.083,1.174-2.808C144.42,66.256,145.23,65.942,146.176,65.942z M146.074,66.33c-0.646,0-1.168,0.242-1.557,0.72
		c-0.484,0.597-0.73,1.471-0.73,2.621c0,1.178,0.254,2.087,0.756,2.724c0.389,0.481,0.898,0.723,1.535,0.723
		c0.678,0,1.238-0.265,1.678-0.792c0.447-0.53,0.666-1.363,0.666-2.504c0-1.238-0.24-2.155-0.73-2.765
		C147.299,66.572,146.762,66.33,146.074,66.33z"/>
	<path fill="#231F20" stroke="#231F20" stroke-width="0.2" stroke-miterlimit="10" d="M159.617,73.331h-1.926l-2.445-3.378
		c-0.182,0.007-0.332,0.01-0.445,0.01c-0.045,0-0.096,0-0.146,0c-0.053-0.002-0.107-0.003-0.166-0.01v2.101
		c0,0.453,0.049,0.737,0.145,0.846c0.141,0.157,0.342,0.236,0.613,0.236h0.281v0.196h-3.096v-0.196h0.273
		c0.305,0,0.521-0.1,0.654-0.3c0.072-0.107,0.109-0.369,0.109-0.782v-4.669c0-0.452-0.049-0.734-0.146-0.846
		c-0.139-0.157-0.344-0.234-0.617-0.234h-0.273v-0.198h2.633c0.766,0,1.332,0.059,1.697,0.168c0.361,0.112,0.67,0.318,0.926,0.619
		c0.254,0.302,0.383,0.658,0.383,1.073c0,0.444-0.145,0.83-0.438,1.157c-0.291,0.326-0.732,0.559-1.346,0.693l1.494,2.071
		c0.342,0.476,0.631,0.792,0.877,0.947c0.248,0.157,0.566,0.258,0.959,0.3V73.331z M154.488,69.617c0.066,0,0.125,0.001,0.178,0.002
		c0.049,0.002,0.09,0.006,0.117,0.006c0.695,0,1.211-0.15,1.561-0.45c0.35-0.297,0.525-0.677,0.525-1.141
		c0-0.452-0.141-0.816-0.424-1.1c-0.281-0.281-0.656-0.424-1.121-0.424c-0.205,0-0.486,0.036-0.836,0.104V69.617z"/>
	<path fill="#231F20" stroke="#231F20" stroke-width="0.2" stroke-miterlimit="10" d="M164.963,69.326l2.662,2.646
		c0.438,0.44,0.812,0.736,1.121,0.895c0.307,0.156,0.619,0.244,0.926,0.269v0.196h-3.436v-0.196c0.205,0,0.355-0.037,0.447-0.106
		c0.09-0.068,0.137-0.144,0.137-0.231c0-0.086-0.018-0.161-0.053-0.229s-0.146-0.194-0.332-0.379l-2.496-2.467v2.33
		c0,0.365,0.023,0.606,0.074,0.723c0.031,0.09,0.107,0.167,0.221,0.23c0.154,0.087,0.312,0.129,0.484,0.129h0.244v0.196h-3.078
		v-0.196h0.258c0.297,0,0.514-0.087,0.65-0.261c0.084-0.115,0.125-0.386,0.125-0.821v-4.669c0-0.364-0.023-0.606-0.068-0.728
		c-0.035-0.084-0.109-0.161-0.219-0.223c-0.154-0.086-0.318-0.128-0.488-0.128h-0.258v-0.198h3.078v0.198h-0.244
		c-0.168,0-0.328,0.041-0.484,0.124c-0.111,0.057-0.188,0.142-0.229,0.253c-0.043,0.115-0.066,0.35-0.066,0.702v2.212
		c0.074-0.064,0.318-0.292,0.732-0.675c1.053-0.969,1.693-1.61,1.91-1.936c0.096-0.142,0.145-0.265,0.145-0.37
		c0-0.085-0.037-0.154-0.109-0.216c-0.076-0.062-0.201-0.095-0.381-0.095h-0.166v-0.198h2.656v0.198
		c-0.156,0.004-0.297,0.025-0.426,0.063c-0.129,0.04-0.285,0.118-0.473,0.229c-0.182,0.11-0.41,0.288-0.682,0.539
		c-0.076,0.071-0.436,0.432-1.078,1.092L164.963,69.326z"/>
</g>
</svg>
